<?xml version="1.0" encoding="utf-8"?>
<!-- Generator: Adobe Illustrator 23.0.4, SVG Export Plug-In . SVG Version: 6.00 Build 0)  -->
<svg version="1.1" id="Capa_1" xmlns="http://www.w3.org/2000/svg" xmlns:xlink="http://www.w3.org/1999/xlink" x="0px" y="0px"
	 viewBox="0 0 224.2 197.6" style="enable-background:new 0 0 224.2 197.6;" xml:space="preserve">
<style type="text/css">
	.st0{display:none;}
	.st1{display:inline;}
	.st2{fill:#FFFFFF;}
	.st3{fill:#F69223;}
</style>
<g class="st0">
	<g class="st1">
		<g>
			<path class="st2" d="M3164.5,787.3v-0.7c1.5-0.2,1.6-0.3,1.6-2l0-7.6c-1.4,3.4-2.9,7.1-4.3,10.4h-0.6c-1.3-3.2-2.7-6.8-4.1-10.2
				c-0.3,6.1-0.3,7.3-0.3,8c0,1.1,0.4,1.3,1.9,1.5v0.7h-4.8v-0.7c1.1-0.1,1.6-0.3,1.8-1.5c0.1-0.6,0.2-1.7,0.6-8.1
				c0.1-0.9-0.1-1.5-1.8-1.6v-0.7h4.2l3.8,8.6l3.8-8.6h4.1v0.7c-1.6,0.2-1.7,0.3-1.7,1.9l0.2,7.3c0,1.8,0.1,1.8,1.7,2v0.7H3164.5z"
				/>
			<path class="st2" d="M3178.9,774.4c3.6,0,6.6,2.6,6.6,6.5c0,4.2-3,6.8-6.6,6.8c-3.9,0-6.7-2.8-6.7-6.6
				C3172.1,777.7,3174.4,774.4,3178.9,774.4z M3178.6,775.2c-2,0-3.5,1.9-3.5,5.4c0,3.3,1.3,6.1,3.9,6.1c1.9,0,3.3-1.8,3.3-5.4
				C3182.4,777.5,3180.9,775.2,3178.6,775.2z"/>
			<path class="st2" d="M3200.3,775.4c-1.2,0.2-1.6,0.4-1.6,1.3c-0.1,0.8-0.1,1.4-0.1,3.1v7.8h-1.1l-8.1-9.7v4.4c0,1.7,0,2.5,0.1,3
				c0.1,0.9,0.5,1.3,1.9,1.4v0.7h-4.8v-0.7c1.1-0.1,1.6-0.4,1.7-1.3c0.1-0.7,0.1-1.4,0.1-3.1v-4.6c0-0.6,0-1.1-0.4-1.6
				c-0.4-0.5-0.8-0.5-1.6-0.6v-0.7h3.8l7.4,8.6v-3.5c0-1.7,0-2.3-0.1-3.1c-0.1-0.8-0.4-1.2-2-1.3v-0.7h4.8V775.4z"/>
			<path class="st2" d="M3207.9,787.3v-0.7c1.2-0.2,1.2-0.4,1-1.2c-0.2-0.6-0.5-1.5-0.8-2.2h-3.8c-0.2,0.6-0.5,1.3-0.7,1.9
				c-0.4,1.2,0.1,1.4,1.6,1.5v0.7h-4.8v-0.7c1.2-0.2,1.5-0.3,2.2-2l4.1-10.1l0.9-0.2c1.2,3.4,2.6,6.9,3.8,10.1
				c0.7,1.8,0.9,1.9,2.2,2.1v0.7H3207.9z M3206.1,778c-0.6,1.4-1.1,2.7-1.6,4.1h3.1L3206.1,778z"/>
			<path class="st2" d="M3226.8,787.4c-0.1,0-0.4,0-0.6,0c-2.5-0.1-3.2-0.6-3.8-1.5c-0.8-1.1-1.3-2.3-2-3.4
				c-0.3-0.5-0.6-0.6-1.2-0.6l-0.4,0v2.8c0,1.6,0.2,1.7,1.7,1.9v0.7h-6v-0.7c1.5-0.2,1.7-0.3,1.7-1.9v-7.5c0-1.5-0.2-1.8-1.7-1.9
				v-0.7h5.7c1.7,0,2.7,0.2,3.5,0.7c0.8,0.5,1.3,1.4,1.3,2.6c0,1.7-1.2,2.7-2.4,3.2c0.3,0.6,1.1,1.9,1.6,2.7c0.7,1.1,1.1,1.6,1.5,2
				c0.4,0.5,0.7,0.7,1.2,0.9L3226.8,787.4z M3219.4,781.1c0.8,0,1.5-0.1,1.9-0.5c0.6-0.5,0.9-1.3,0.9-2.3c0-2.1-1.2-2.8-2.3-2.8
				c-0.5,0-0.8,0.1-0.9,0.2c-0.1,0.1-0.2,0.4-0.2,0.7v4.7H3219.4z"/>
			<path class="st2" d="M3239.2,784c-0.3,1-0.8,2.5-1.1,3.1c-0.5,0.1-2.1,0.5-3.6,0.5c-5.2,0-7.4-3.4-7.4-6.5c0-4,3.1-6.8,7.8-6.8
				c1.7,0,3.2,0.4,3.7,0.5c0.1,0.9,0.2,2.4,0.4,3.2l-0.8,0.1c-0.4-1.5-1-2.2-2-2.7c-0.5-0.2-1.2-0.3-1.7-0.3c-2.8,0-4.2,2.4-4.2,5.4
				c0,3.6,1.8,6,4.5,6c1.6,0,2.7-0.9,3.8-3L3239.2,784z"/>
			<path class="st2" d="M3247.4,787.3v-0.7c1.2-0.2,1.2-0.4,1-1.2c-0.2-0.6-0.5-1.5-0.8-2.2h-3.8c-0.2,0.6-0.5,1.3-0.7,1.9
				c-0.4,1.2,0.1,1.4,1.6,1.5v0.7h-4.8v-0.7c1.2-0.2,1.5-0.3,2.2-2l4.1-10.1l0.9-0.2c1.2,3.4,2.6,6.9,3.8,10.1
				c0.7,1.8,0.9,1.9,2.2,2.1v0.7H3247.4z M3245.7,778c-0.6,1.4-1.1,2.7-1.6,4.1h3.1L3245.7,778z"/>
		</g>
		<g>
			<path class="st2" d="M3153.4,797.6c0-0.1,0-0.1,0-0.2l1.9-5.4c0.1-0.2,0.2-0.3,0.4-0.3h0.2c0.2,0,0.3,0.1,0.4,0.3l1.9,5.4
				c0,0,0,0.1,0,0.2c0,0.2-0.2,0.4-0.4,0.4c-0.2,0-0.3-0.1-0.4-0.3l-0.4-1.3h-2.3l-0.4,1.3c0,0.2-0.2,0.3-0.4,0.3
				C3153.5,798,3153.4,797.8,3153.4,797.6z M3156.8,795.7l-1-2.8h0l-1,2.8H3156.8z"/>
			<path class="st2" d="M3159.5,797.6v-5.5c0-0.2,0.2-0.4,0.4-0.4h1.4c1.4,0,2.2,0.5,2.2,1.9c0,1.2-0.8,1.6-1.2,1.8l1.1,2
				c0,0.1,0.1,0.2,0.1,0.2c0,0.2-0.2,0.4-0.4,0.4c-0.2,0-0.3-0.1-0.4-0.2l-1.2-2.2h-1.2v2.1c0,0.2-0.2,0.4-0.4,0.4
				C3159.7,798,3159.5,797.8,3159.5,797.6z M3161.4,794.8c0.9,0,1.3-0.3,1.3-1.2c0-0.9-0.5-1.2-1.5-1.2h-1v2.4H3161.4z"/>
			<path class="st2" d="M3166.2,797.6v-5.1h-1.5c-0.2,0-0.4-0.1-0.4-0.3c0-0.2,0.2-0.3,0.4-0.3h3.7c0.2,0,0.4,0.1,0.4,0.3
				c0,0.2-0.2,0.3-0.4,0.3h-1.5v5.2c0,0.2-0.2,0.4-0.4,0.4C3166.4,798,3166.2,797.8,3166.2,797.6z"/>
			<path class="st2" d="M3170,791c0,0,0-0.1,0-0.1l0.4-1c0.1-0.1,0.2-0.2,0.3-0.2c0.2,0,0.4,0.1,0.4,0.3c0,0.1,0,0.1-0.1,0.2
				l-0.5,0.9c-0.1,0.1-0.2,0.1-0.3,0.1C3170.2,791.2,3170,791.1,3170,791z M3170.1,797.6V792c0-0.2,0.2-0.4,0.4-0.4
				c0.2,0,0.4,0.2,0.4,0.4v5.5c0,0.2-0.2,0.4-0.4,0.4C3170.3,798,3170.1,797.8,3170.1,797.6z"/>
			<path class="st2" d="M3172.4,795.8v-2.1c0-1.3,0.7-2.1,2.2-2.1c0.8,0,1.4,0.3,1.8,0.9c0,0.1,0,0.1,0,0.2c0,0.2-0.2,0.4-0.4,0.4
				c-0.1,0-0.2,0-0.3-0.1c-0.3-0.4-0.6-0.6-1.2-0.6c-1,0-1.4,0.5-1.4,1.5v1.9c0,0.9,0.4,1.5,1.4,1.5c0.5,0,0.9-0.2,1.2-0.6
				c0.1-0.1,0.2-0.2,0.3-0.2c0.2,0,0.4,0.2,0.4,0.4c0,0.1,0,0.1-0.1,0.2c-0.3,0.5-0.9,1-1.8,1C3173.2,798,3172.4,797.1,3172.4,795.8
				z"/>
			<path class="st2" d="M3177.7,796V792c0-0.2,0.2-0.4,0.4-0.4c0.2,0,0.4,0.2,0.4,0.4v3.8c0,0.8,0.3,1.4,1.3,1.4
				c1.1,0,1.3-0.6,1.3-1.4V792c0-0.2,0.2-0.4,0.4-0.4c0.2,0,0.4,0.2,0.4,0.4v3.9c0,1.3-0.7,2-2.1,2S3177.7,797.2,3177.7,796z"/>
			<path class="st2" d="M3183.8,797.5V792c0-0.2,0.2-0.4,0.4-0.4c0.2,0,0.4,0.2,0.4,0.4v5.2h2.2c0.2,0,0.4,0.1,0.4,0.3
				c0,0.2-0.2,0.3-0.4,0.3h-2.7C3184,797.9,3183.8,797.7,3183.8,797.5z"/>
			<path class="st2" d="M3188,795.8v-2.1c0-1.3,0.7-2.1,2.2-2.1c1.5,0,2.2,0.8,2.2,2.1v2.1c0,1.3-0.7,2.1-2.2,2.1
				C3188.7,798,3188,797.1,3188,795.8z M3191.5,795.7v-1.9c0-0.9-0.4-1.5-1.4-1.5s-1.4,0.5-1.4,1.5v1.9c0,0.9,0.4,1.5,1.4,1.5
				S3191.5,796.7,3191.5,795.7z"/>
			<path class="st2" d="M3193.6,797.5c-0.1-0.1-0.2-0.2-0.2-0.3c0-0.2,0.2-0.4,0.4-0.4c0.1,0,0.1,0,0.2,0.1c0.4,0.2,0.8,0.3,1.4,0.3
				c1,0,1.3-0.5,1.3-1.1c0-1.9-3.2-0.7-3.2-2.9c0-1.1,0.7-1.6,1.9-1.6c0.7,0,1.2,0.2,1.6,0.4c0.1,0.1,0.2,0.2,0.2,0.3
				c0,0.2-0.2,0.3-0.4,0.3c-0.1,0-0.2,0-0.2-0.1c-0.4-0.2-0.8-0.3-1.1-0.3c-0.9,0-1.1,0.4-1.1,0.9c0,1.4,3.2,0.5,3.2,2.8
				c0,1-0.6,1.8-2.1,1.8C3194.8,798,3194.2,797.8,3193.6,797.5z"/>
			<path class="st2" d="M3201.3,797.5v-5.4c0-0.2,0.2-0.4,0.4-0.4h1.6c1.5,0,2.4,1,2.4,3.1c0,1.9-0.9,3.1-2.2,3.1h-1.8
				C3201.5,797.9,3201.3,797.7,3201.3,797.5z M3203.2,797.2c1.5,0,1.8-1.2,1.8-2.4c0-1.1-0.3-2.3-1.8-2.3h-1.1v4.8H3203.2z"/>
			<path class="st2" d="M3207.3,797.5v-5.4c0-0.2,0.2-0.4,0.4-0.4h2.6c0.2,0,0.4,0.1,0.4,0.3c0,0.2-0.2,0.3-0.4,0.3h-2.3v2h2.1
				c0.2,0,0.4,0.1,0.4,0.3c0,0.2-0.2,0.3-0.4,0.3h-2.1v2.1h2.3c0.2,0,0.4,0.1,0.4,0.3c0,0.2-0.2,0.3-0.4,0.3h-2.7
				C3207.5,797.9,3207.3,797.7,3207.3,797.5z"/>
			<path class="st2" d="M3214.1,797.6c0-0.1,0-0.1,0-0.2l1.9-5.4c0.1-0.2,0.2-0.3,0.4-0.3h0.2c0.2,0,0.3,0.1,0.4,0.3l1.9,5.4
				c0,0,0,0.1,0,0.2c0,0.2-0.2,0.4-0.4,0.4c-0.2,0-0.3-0.1-0.4-0.3l-0.4-1.3h-2.3l-0.4,1.3c0,0.2-0.2,0.3-0.4,0.3
				C3214.3,798,3214.1,797.8,3214.1,797.6z M3217.5,795.7l-1-2.8h0l-1,2.8H3217.5z"/>
			<path class="st2" d="M3220.2,797.5V792c0-0.2,0.2-0.4,0.4-0.4c0.2,0,0.4,0.2,0.4,0.4v5.2h2.2c0.2,0,0.4,0.1,0.4,0.3
				c0,0.2-0.2,0.3-0.4,0.3h-2.7C3220.4,797.9,3220.2,797.7,3220.2,797.5z"/>
			<path class="st2" d="M3224.6,796V792c0-0.2,0.2-0.4,0.4-0.4c0.2,0,0.4,0.2,0.4,0.4v3.8c0,0.8,0.3,1.4,1.3,1.4
				c1.1,0,1.3-0.6,1.3-1.4V792c0-0.2,0.2-0.4,0.4-0.4c0.2,0,0.4,0.2,0.4,0.4v3.9c0,1.3-0.7,2-2.1,2
				C3225.3,798,3224.6,797.2,3224.6,796z"/>
			<path class="st2" d="M3230.7,797.6V792c0-0.2,0.2-0.3,0.3-0.3c0.1,0,0.2,0.1,0.3,0.2l2.1,3.8l2-3.8c0.1-0.1,0.2-0.2,0.3-0.2
				c0.2,0,0.3,0.1,0.3,0.3v5.6c0,0.2-0.2,0.3-0.4,0.3s-0.4-0.1-0.4-0.3v-4.1h0l-1.6,3c-0.1,0.1-0.2,0.2-0.3,0.2
				c-0.1,0-0.2-0.1-0.3-0.2l-1.6-3h0v4.1c0,0.2-0.2,0.3-0.4,0.3S3230.7,797.8,3230.7,797.6z"/>
			<path class="st2" d="M3237.9,797.6V792c0-0.2,0.2-0.4,0.4-0.4c0.2,0,0.4,0.2,0.4,0.4v5.5c0,0.2-0.2,0.4-0.4,0.4
				C3238.1,798,3237.9,797.8,3237.9,797.6z"/>
			<path class="st2" d="M3240.5,797.6V792c0-0.2,0.2-0.3,0.4-0.3c0.2,0,0.2,0.1,0.3,0.2l3,4.5h0V792c0-0.2,0.2-0.3,0.4-0.3
				c0.2,0,0.4,0.1,0.4,0.3v5.6c0,0.2-0.2,0.4-0.4,0.4c-0.2,0-0.3-0.1-0.4-0.2l-2.9-4.4h0v4.3c0,0.2-0.2,0.3-0.4,0.3
				S3240.5,797.8,3240.5,797.6z"/>
			<path class="st2" d="M3246.8,797.6V792c0-0.2,0.2-0.4,0.4-0.4c0.2,0,0.4,0.2,0.4,0.4v5.5c0,0.2-0.2,0.4-0.4,0.4
				C3247,798,3246.8,797.8,3246.8,797.6z"/>
			<path class="st2" d="M3249.1,795.8v-2.1c0-1.3,0.7-2.1,2.2-2.1c1.5,0,2.2,0.8,2.2,2.1v2.1c0,1.3-0.7,2.1-2.2,2.1
				C3249.8,798,3249.1,797.1,3249.1,795.8z M3252.7,795.7v-1.9c0-0.9-0.4-1.5-1.4-1.5s-1.4,0.5-1.4,1.5v1.9c0,0.9,0.4,1.5,1.4,1.5
				S3252.7,796.7,3252.7,795.7z"/>
		</g>
	</g>
	<g class="st1">
		<g>
			<path class="st2" d="M3092.8,796.8c-6.1,0-12.9-0.2-13-0.2l0,0l0,0c0,0-0.1,0-0.4,0c-0.8,0-2.1-0.2-2.3-1.3l0,0l0,0
				c-0.5-2.5-0.8-10.4-0.8-10.5l0-0.7l0-0.7l0.2,0l0.1-0.6c0-0.1,0.3-1.6,1.5-1.7c0.3,0,1.5,0,3.4,0c1.1,0,2.2,0,3.3,0
				c0.4-0.3,0.8-0.6,1.1-0.7c-1.4,0-3,0-4.5,0c-1.6,0-3,0-3.4,0c-1.8,0.1-2.2,2.3-2.2,2.3h-1v0.7h0.5v0.6h-3.1v0.8h3.3
				c0,0,0.3,8,0.8,10.6c0.3,1.7,2.2,1.9,3,1.9c0.3,0,0.4,0,0.4,0s6.8,0.1,13,0.2C3092.8,797.3,3092.8,797,3092.8,796.8z"/>
			<path class="st2" d="M3145.5,787.4v-0.5h0.7v-0.6h-1.2c-0.3-1.5-2.1-1.6-2.1-1.6h-11.4v-1.3h1.7v-0.7h-5.6v0.7h1.6v1.3
				c0,0-1.1,0-2.5,0l0.3-6h3.5v-1.2h-3.3v-1.1h0.7v-1.3h-1.2c-0.3-3.6-2.1-3.8-2.1-3.8h-2.2c0.1,0.2,0.1,0.5,0.2,0.7h2
				c0.2,0.1,1.2,0.5,1.5,3.2c0,0,0.1,0.4,0.1,0.6c0,0.3,0.1,2,0.1,2.8s-0.3,6-0.3,6l0,0.7l0.7,0c1.5,0,2.5,0,2.5,0l0.7,0v0h0.9l0,0
				h0.7h11.3c0.1,0,1.2,0.1,1.4,1.1l0.1,0.6l0.1,0.1l-0.1,0.6c-0.3,2.5-0.9,6.6-0.9,7c0,0-0.2,1.1-1.2,1.2l-0.1,0l0,0
				c-0.2,0-1.2,0.1-6.1,0.1c-2.7,0-6.2,0-10.3-0.1l-0.6,0l-0.1,0.6c-0.4,1.5-0.8,2-1,2.1l-0.1,0l0,0c-0.2,0.1-1.3,0.2-5.9,0.2
				c-3.5,0-7.7-0.1-11-0.2c-0.1,0.2-0.2,0.5-0.3,0.7c3.3,0.1,7.7,0.2,11.3,0.2c3.3,0,5.9-0.1,6.3-0.3c0.8-0.2,1.2-1.5,1.5-2.6
				c3.2,0,7.1,0.1,10.4,0.1c3.3,0,5.9,0,6.3-0.1c1.4-0.2,1.8-1.6,1.8-1.9s0.9-6.9,0.9-6.9h3.5v-0.5H3145.5z"/>
			<path class="st2" d="M3089,779.9c0.2,0,0.5,0,0.7,0l0,0l0.9,0v0c0,0,0.1,0,0.1,0c0.2,0,0.4,0,0.6,0v-1.1h1.7v-1h-5.6v1h1.6V779.9
				z"/>
			<path class="st2" d="M3097.8,780.5h-1.8c0.8,0.2,1.5,0.4,2.1,0.7h0.4l0-0.7c0-1.1,0-1.8,0-1.8l0-0.7l0.1-2.5l0-0.2
				c0.1-1,0.8-3.2,1.7-3.2c0.2,0,1,0,3.3,0c3.2,0,7.6,0,7.6,0l0.7,0l0.8,0c0.3-0.2,0.5-0.5,0.8-0.7h-0.1V770h1.7v-1.3h-5.6v1.3h1.6
				v1.4c0,0-4.4,0-7.6,0c-1.6,0-3,0-3.4,0c-1.8,0.1-2.2,3.8-2.2,3.8v0h-1v1.2h0.5v0.9h-3.1v1.4h3.3
				C3097.7,778.7,3097.7,779.4,3097.8,780.5z"/>
		</g>
		<g>
			<path class="st2" d="M3120.1,785.1c4.2-1.6,2.4-6,2.4-6s-0.8-1.7-0.4-3.8c0.6-5.1-1.5-6-3.1-6c-1,0-1.8,0.3-1.8,0.3
				c-10.3,6-9.8,15.4-9.8,15.4c-0.5,0.9-0.6,1.6-0.6,2.2c0.1,1.2,1.4,4,2.4,5.2c2,2.4,4,3.4,7,4.9c0.9,0.4,1.7,0.7,2.5,0.7
				c2,0,3.7-1.6,4.7-6.1C3124.9,785.7,3120.1,785.1,3120.1,785.1z M3121.9,780.8C3121.9,780.8,3121.9,780.8,3121.9,780.8
				L3121.9,780.8c-0.1,1.1-0.7,2.8-3.6,3.3c-4.2,0.8-7.4,1.3-9.5,2.5c0,0,0-0.1,0-0.1c0-0.1,0.1-0.3,0.1-0.4
				c0.1-0.3,0.3-0.6,0.5-0.8c0.4-0.5,0.9-1,1.5-1.4c0.6-0.4,1.2-0.8,1.8-1.1c0.6-0.3,1.3-0.6,2-0.9c0.3-0.1,0.7-0.3,1-0.4
				c0.3-0.1,0.7-0.2,1-0.3c0.7-0.2,1.4-0.4,2.1-0.5c0.7-0.1,1.4-0.2,2.1-0.2c0.3,0,0.6,0,0.9,0
				C3121.9,780.6,3121.9,780.7,3121.9,780.8z M3117.1,788.9C3117.1,788.9,3117.1,788.9,3117.1,788.9c0.1,0.1,0.2,0.1,0.2,0.2
				c0,0,0,0,0,0c0.5,0.5,0.8,1,0.6,1.3c-0.1,0.1-0.1,0.1-0.2,0.2c0,0,0,0,0,0c0,0,0,0,0,0c0,0,0,0,0,0c0,0-0.1,0-0.1,0
				c-0.2,0-0.4,0-0.7-0.1c0,0,0,0,0,0c-0.2-0.1-0.5-0.2-0.8-0.4c-0.6-0.3-1.2-0.8-2.2-1.4c-1.4-1-3-1.6-4.2-1.6
				c-0.3,0-0.6,0-0.8,0.1c0,0,0,0,0,0s3.5-1.8,8.2-1.8c0.6,0,1.3,0,2,0.1c0,0,0,0,0,0c0,0,0.1,0,0.2,0c-0.4,0-0.8,0.1-1.2,0.2
				c-1.1,0.2-1.7,0.6-1.9,1.1C3115.9,787.7,3116.6,788.4,3117.1,788.9z M3121.2,773.1c0.2,0.3,0.1,0.6-0.1,0.7c0,0-0.1,0-0.2,0
				c-0.2,0-0.4-0.1-0.5-0.3c-0.2-0.3-0.1-0.6,0.1-0.7c0,0,0.1,0,0.2,0C3120.9,772.8,3121.1,772.9,3121.2,773.1z M3120.4,770.4
				C3120.4,770.4,3120.4,770.4,3120.4,770.4c0.3,0,0.5,0.1,0.5,0.3c0,0.2-0.2,0.4-0.4,0.4c0,0-0.1,0-0.1,0c-0.2,0-0.4-0.1-0.4-0.3
				C3120,770.6,3120.1,770.4,3120.4,770.4z M3120.2,772c0,0.4-0.4,0.7-1,0.8c-0.1,0-0.1,0-0.2,0c-0.5,0-0.9-0.2-0.9-0.5
				c0-0.4,0.4-0.7,1-0.8c0.1,0,0.1,0,0.2,0C3119.8,771.5,3120.2,771.7,3120.2,772z M3118.4,770.1c0,0,0.1,0,0.1,0
				c0.3,0,0.6,0.2,0.6,0.4c0,0.3-0.2,0.5-0.6,0.6c0,0-0.1,0-0.1,0c-0.3,0-0.6-0.2-0.6-0.4C3117.7,770.4,3118,770.1,3118.4,770.1z
				 M3110,779.5c1.5-2.9,4.5-5.2,5.3-5.7c0.9-0.6,1.6-0.9,2.3-0.9c0.5,0,1,0.2,1.6,0.5c1.4,0.9,1.8,2.8,2.3,4.2
				c0.1,0.4,0.2,0.8,0.3,1.2c-0.2,0.1-0.5,0.2-0.7,0.3c-0.1,0-0.2,0.1-0.3,0.1c-0.7,0.2-1.4,0.5-2.1,0.7c-0.7,0.2-1.4,0.5-2.1,0.7
				c-0.7,0.2-1.4,0.5-2.1,0.7c-0.7,0.3-1.4,0.5-2,0.8c-0.7,0.3-1.3,0.6-1.9,1s-1.2,0.9-1.7,1.5c-0.1,0.1-0.2,0.2-0.3,0.4
				C3108.6,783.6,3109,781.4,3110,779.5z M3117.2,796.4c-1.5,0-3.3-0.8-4.7-2.2c-1.7-1.6-2.5-2.6-3.2-4.3c-0.3-0.8-0.4-1.4-0.5-1.9
				c0.2-0.2,0.7-0.3,1.2-0.3c0.8,0,1.9,0.3,3.2,1.3c1.2,0.9,2.2,1.9,3.1,3.1c0.9,1.2,2,3,2.5,4c-0.3,0.2-0.5,0.2-1,0.3
				C3117.6,796.4,3117.4,796.4,3117.2,796.4z M3119.2,797.4c-0.1,0.1-0.2,0.2-0.4,0.2c-0.1,0-0.2,0-0.2-0.1
				c-0.2-0.1-0.4-0.4-0.3-0.6c0.1-0.1,0.2-0.2,0.4-0.2c0.1,0,0.2,0,0.2,0C3119.2,797,3119.3,797.2,3119.2,797.4z M3120.7,796.7
				C3120.7,796.7,3120.6,796.7,3120.7,796.7c-0.4,0-0.7-0.2-0.7-0.4c0-0.3,0.2-0.6,0.6-0.6c0,0,0.1,0,0.1,0c0.3,0,0.6,0.2,0.6,0.4
				C3121.3,796.4,3121,796.7,3120.7,796.7z M3122.4,794.7c-0.1,0.2-0.3,0.3-0.5,0.3c-0.1,0-0.1,0-0.2-0.1c-0.2-0.1-0.2-0.5,0-0.8
				c0.1-0.2,0.3-0.3,0.5-0.3c0.1,0,0.1,0,0.2,0.1C3122.5,794.1,3122.5,794.4,3122.4,794.7z M3122.8,789.4c-0.1,3.3-2.2,5.4-2.2,5.4
				s-0.4,0.4-1,0.8c-0.6-0.9-1.6-2.4-2.8-3.8c-0.3-0.3-0.5-0.6-0.8-0.9c0.6,0.2,1.4,0.6,2,0.6c0.1,0,0.2,0,0.3-0.1
				c0.1-0.1,0.2-0.1,0.3-0.2c0.2-0.2,0.3-0.5,0.3-0.8c0-0.5-0.6-1.4-1.2-1.9c-0.4-0.3-1.1-1.1-1.1-1.5c0.1-0.5,0.7-0.8,1.4-1
				c0.2-0.1,0.6-0.1,1.2-0.1C3120.8,786,3123,786.6,3122.8,789.4z"/>
			<path class="st2" d="M3105.3,801.4c1.3-3.1,2.3-5.1,2.2-8.3c0-1.6-0.8-4.6-1.6-5.5c-0.4-0.5-0.9-0.9-1.9-1.3
				c0,0-4.4-5.8-13.4-5.8c-1.3,0-2.6,0.1-4.1,0.4c0,0-6,1.9,0,7.5c1.7,1.3,2.2,3.1,2.2,3.1s1.1,3.3,4.1,3.3c0.5,0,1-0.1,1.6-0.3
				c0,0-3.3,3.5,1.8,7.5c2.2,1.7,3.9,2.4,5.3,2.4C3103.4,804.4,3104.5,803.2,3105.3,801.4z M3104.6,788.8c-1.1,0.5-2.3,2.2-2.9,4.4
				c-0.3,1.1-0.5,1.9-0.8,2.5c-0.1,0.3-0.3,0.6-0.4,0.8c0,0,0,0,0,0c-0.2,0.3-0.4,0.5-0.5,0.6c0,0,0,0,0,0c0,0,0,0,0,0
				c-0.1,0-0.1,0.1-0.2,0.1c0,0-0.1,0-0.1,0c-0.3-0.1-0.5-0.6-0.4-1.4c0,0,0,0,0,0c0-0.1,0-0.2,0-0.3c0,0,0,0,0,0
				c0.1-0.8,0.1-1.8-0.5-2.2c-0.2-0.1-0.4-0.2-0.6-0.2c-0.4,0-0.9,0.2-1.5,0.5c-0.4,0.2-0.7,0.4-1,0.6c0.1-0.1,0.1-0.2,0.1-0.2
				C3099.6,790,3104.6,788.8,3104.6,788.8C3104.6,788.8,3104.6,788.8,3104.6,788.8z M3085.2,784.1c-0.1,0.1-0.2,0.1-0.3,0.1
				c-0.1,0-0.2-0.1-0.3-0.2c-0.1-0.2-0.1-0.4,0.2-0.6c0.1-0.1,0.2-0.1,0.3-0.1c0.1,0,0.2,0.1,0.3,0.2
				C3085.5,783.7,3085.4,784,3085.2,784.1z M3086.1,782c0.2-0.1,0.3-0.2,0.5-0.2c0.2,0,0.3,0.1,0.4,0.2c0.1,0.2,0,0.6-0.3,0.8
				c-0.1,0.1-0.3,0.2-0.5,0.2c-0.2,0-0.3-0.1-0.4-0.2C3085.7,782.5,3085.8,782.2,3086.1,782z M3086.4,786.6
				C3086.4,786.6,3086.4,786.6,3086.4,786.6c-0.3,0-0.5-0.2-0.5-0.5c-0.1-0.3,0.1-0.6,0.3-0.6c0,0,0,0,0.1,0c0.2,0,0.4,0.2,0.4,0.5
				C3086.8,786.3,3086.7,786.5,3086.4,786.6z M3087.2,784.5c-0.2,0.2-0.5,0.2-0.7,0.2c-0.2,0-0.4-0.1-0.5-0.2
				c-0.2-0.3,0-0.8,0.5-1.1c0.3-0.2,0.5-0.2,0.7-0.2c0.2,0,0.4,0.1,0.5,0.2C3087.9,783.7,3087.6,784.2,3087.2,784.5z M3090,790.6
				c-0.2,0.1-0.5,0.2-0.7,0.3c-0.2-0.3-0.4-0.7-0.6-1.1c-0.5-1.3-1.5-3.1-1-4.7c0.5-1.6,1.4-2,3.2-2.3c0.3-0.1,1-0.1,1.9-0.1
				c1.6,0,3.8,0.2,5.8,1c2,0.8,3.7,2.2,4.7,3.3c-0.2,0-0.3-0.1-0.5-0.1c-0.4-0.1-0.7-0.1-1.1-0.1c-0.4,0-0.8,0-1.2,0.1
				c-0.7,0.1-1.5,0.3-2.2,0.5c-0.7,0.2-1.4,0.4-2.1,0.7c-0.7,0.2-1.4,0.5-2,0.8c-0.7,0.3-1.4,0.5-2,0.8c-0.7,0.3-1.4,0.6-2,0.8
				C3090.2,790.5,3090.1,790.6,3090,790.6z M3092.7,793.3c-1.1,0-1.9-0.5-2.3-1v0c0,0,0,0,0,0c0,0-0.1-0.1-0.3-0.3
				c0.2-0.2,0.5-0.4,0.7-0.6c0.6-0.4,1.2-0.8,1.8-1.2c0.6-0.4,1.2-0.7,1.9-1c0.3-0.1,0.7-0.3,1-0.4c0.3-0.1,0.7-0.2,1-0.4
				c0.7-0.2,1.4-0.5,2-0.6c0.7-0.2,1.4-0.3,2.1-0.3c0.2,0,0.4,0,0.7,0c0.5,0,0.9,0,1.4,0.1c0.3,0.1,0.6,0.2,0.9,0.3
				c0.1,0.1,0.3,0.2,0.4,0.2c0,0,0,0,0.1,0.1c-2.3,0.4-5.1,2.1-8.9,4.2C3094.3,793.1,3093.4,793.3,3092.7,793.3z M3099.7,803.1
				c0,0.2-0.2,0.3-0.4,0.3c-0.1,0-0.2,0-0.3,0c-0.3-0.1-0.5-0.4-0.5-0.6c0-0.2,0.2-0.3,0.4-0.3c0.1,0,0.2,0,0.2,0
				C3099.5,802.5,3099.7,802.8,3099.7,803.1z M3095.3,799.5c-2.7-2.8,0.7-5.2,1.4-5.5c0.4-0.2,0.8-0.3,1.2-0.3
				c0.2,0,0.4,0.1,0.5,0.2c0.3,0.3,0.2,1.4,0.2,1.9c-0.1,0.8,0.1,1.8,0.4,2.2c0.2,0.2,0.5,0.4,0.8,0.4c0,0,0,0,0,0
				c0.1,0,0.2,0,0.3-0.1c0.6-0.2,1.1-1.3,1.4-1.9c0,0.4,0,0.7,0,1.1c0,1.8,0.2,3.7,0.3,4.7c-0.3,0-0.5,0-0.7,0c-0.3,0-0.5,0-0.5,0
				S3097.5,802,3095.3,799.5z M3101.6,803.7c-0.1,0.1-0.3,0.1-0.4,0.1c-0.2,0-0.3-0.1-0.4-0.2c-0.2-0.2,0-0.6,0.2-0.8
				c0.1-0.1,0.3-0.1,0.4-0.1c0.2,0,0.3,0.1,0.4,0.2C3102,803.2,3101.9,803.5,3101.6,803.7z M3102,797.4c-0.1-1.5,0.1-2.9,0.4-4.4
				c0.5-2.7,2.1-3.5,2.7-3.6c0.3,0.4,0.6,0.9,0.8,1.7c0.6,1.8,0.6,3.1,0.4,5.4s-1.3,4.3-2.7,5.1c-0.4,0.2-0.6,0.3-0.9,0.4
				C3102.4,800.9,3102,798.9,3102,797.4z M3103.8,803.1c-0.1,0.2-0.3,0.3-0.4,0.3c-0.1,0-0.1,0-0.1,0c-0.2-0.1-0.3-0.4-0.1-0.6
				c0.1-0.2,0.3-0.3,0.4-0.3c0,0,0.1,0,0.1,0C3103.8,802.5,3103.9,802.8,3103.8,803.1z"/>
		</g>
	</g>
</g>
<g>
	<path d="M132.4,88.7c0,0-2.9-53.3,55-86.8c0,0,32.6-13.4,27.3,32.1c-2.6,11.8,2.1,21.5,2.1,21.5s10,24.5-13.5,33.7
		c0,0,27,3.1,19.5,38.5s-23.5,38.7-40.5,30.5s-28.5-13.7-39.7-27.3c-5.7-6.9-13.1-22.6-13.5-29.5C129,97.9,129.7,93.9,132.4,88.7z"
		/>
	<g>
		<g>
			<path class="st2" d="M196.8,155.3c1.4,0.6,2.1,2.1,1.6,3.2c-0.5,1.1-2.1,1.6-3.5,0.9c-1.4-0.6-2.1-2.1-1.6-3.2
				C193.9,155.1,195.5,154.7,196.8,155.3z"/>
			<path class="st2" d="M205.9,148.7c1.9-0.2,3.7,0.9,3.9,2.5c0.2,1.6-1.2,3.1-3.2,3.3c-2,0.2-3.7-0.9-3.9-2.5
				C202.5,150.4,203.9,148.9,205.9,148.7z"/>
			<path class="st2" d="M212.2,140c1-1.6,2.6-2.2,3.7-1.4c1.1,0.9,1.1,2.9,0.2,4.5c-1,1.6-2.6,2.3-3.7,1.4
				C211.4,143.7,211.2,141.6,212.2,140z"/>
		</g>
		<g>
			<path class="st2" d="M193.5,4.6c2.1-0.3,4,0.8,4.2,2.2c0.2,1.5-1.4,2.9-3.5,3.1s-4-0.8-4.2-2.3C189.8,6.2,191.4,4.8,193.5,4.6z"
				/>
			<path class="st2" d="M204.9,6.3c1.5-0.2,2.8,0.7,2.9,1.9c0.1,1.2-0.9,2.3-2.4,2.5c-1.5,0.2-2.7-0.7-2.9-1.9
				C202.4,7.6,203.4,6.5,204.9,6.3z"/>
			<path class="st2" d="M197.7,12.3c3.2-0.4,6,0.9,6.3,2.9c0.2,2-2.2,3.9-5.4,4.3c-3.2,0.4-6-0.9-6.3-2.9
				C192.1,14.6,194.5,12.7,197.7,12.3z"/>
			<path class="st2" d="M205.6,23.9c-0.9-1.6-0.7-3.4,0.5-3.9c1.1-0.7,2.7,0.1,3.6,1.6c0.9,1.6,0.7,3.4-0.5,3.9
				C208.1,26.1,206.4,25.4,205.6,23.9z"/>
		</g>
	</g>
	<path class="st3" d="M192.4,95c-4.1,1.1-7.5,2.8-7.8,5.4c-0.3,2.6,4,6.8,6.1,8.7c3.3,3,6.5,8,6.5,10.8c0,1.7-0.7,3.2-1.9,4.4
		c-0.7,0.6-1,0.6-1.8,0.9c-3.3,1.2-9.2-1.5-13-3.2c1.4,1.5,2.8,3.1,4.3,4.8c6.7,7.9,12.6,16.6,15.8,21.4c3.4-2.3,5.5-4.5,5.5-4.5
		s11.9-11.6,12.6-30.4C219.8,91.5,196.5,93.9,192.4,95z"/>
	<path class="st3" d="M181.8,128.4c-5.3-6.7-11.2-12.2-17.7-17.4c-12-9.4-21.8-7.7-24.8-5.3c0.2,2.5,0.9,6,2.7,10.5
		c3.9,9.7,8.7,15.3,18.1,24.3c9.4,9,21.5,13.6,30.4,12c2.4-0.4,3.5-0.7,5.4-1.7C193.2,145.2,187.2,135.2,181.8,128.4z"/>
	<path class="st3" d="M196.8,91.8c-31.5-3.6-57.4,9.4-57.4,9.4s0,0,0,0.1c6.4-2,18,1,28.1,8.3c5.3,3.4,9.1,6.1,12.3,7.7
		c1.8,0.9,3.4,1.6,4.8,2.1c0.1,0,0.2,0.1,0.2,0.1c1.8,0.7,3.4,0.9,4.6,0.7c0,0,0,0,0.1,0c0.1,0,0.1,0,0.2-0.1
		c0.6-0.1,1.1-0.4,1.4-0.9c1.1-1.5-0.3-4.4-3.2-7.3c0,0,0,0-0.1-0.1c-0.4-0.4-0.8-0.8-1.2-1.1c0,0,0,0,0,0c-3.1-3-7-7.2-5.8-11.4
		c0.9-3.2,4.3-5.3,10.5-6.4c2.5-0.5,4.7-0.8,6.7-1C197.2,91.8,196.8,91.8,196.8,91.8z"/>
	<g>
		<path class="st3" d="M208.1,63c-4.1,0.3-8.1,0.7-12,1.4c-4,0.7-7.9,1.5-11.7,2.7c-1.9,0.6-3.8,1.2-5.7,1.9
			c-1.9,0.7-3.8,1.4-5.7,2.1c-3.7,1.5-7.5,3-11,4.8c-3.5,1.8-7,3.9-10.1,6.2c-3.1,2.3-6.1,4.9-8.4,7.9c-1.1,1.5-2.1,3.1-2.8,4.7
			c-0.3,0.8-0.6,1.6-0.8,2.5c0,0.2-0.1,0.3-0.1,0.5c11.5-6.8,29.4-9.8,53.3-14.3c16.3-3,19.7-12.6,20.2-18.6l0,0c0,0,0,0,0,0
			c0-0.4,0.1-1.1,0.1-2.1C211.6,62.8,209.9,62.9,208.1,63z"/>
		<path class="st3" d="M139.9,87.2c2.8-3.4,6.2-6,9.7-8.3c3.5-2.3,7.2-4.2,10.9-5.9c3.7-1.7,7.5-3.3,11.3-4.7
			c3.8-1.5,7.7-2.8,11.6-4.1c3.9-1.3,7.7-2.6,11.7-3.9c3.9-1.3,7.8-2.5,11.7-3.9c0.6-0.2,1.3-0.4,1.9-0.7c1.4-0.5,2.8-1,4.2-1.5
			c-0.3-2.1-0.7-4.4-1.5-6.6c-2.4-7.6-4.7-18.7-12.8-23.6c-8-4.8-13.2-3.7-22.2,1.8c-4.6,2.8-21.3,15.5-29.9,31.9
			c-5.6,10.6-7.9,23.1-8.3,31.5C138.8,88.6,139.4,87.9,139.9,87.2z"/>
	</g>
	<path d="M123.6,103.3c4.1,5.5,8.7,22.3,8.9,31.2c0.3,17.7-4.9,29.3-12.5,46.5c-7.6,17.2-21.9,25.1-50.6,3s-10.1-42-10.1-42
		c-23.8,8.2-32-16.9-32-16.9s-2.7-10.4-12.3-17.7c-33.5-31.3,0.1-42.2,0.1-42.2c65.9-12,98.2,30.5,98.2,30.5
		C118.5,98,121.6,100.6,123.6,103.3z"/>
	<g>
		<g>
			<path class="st2" d="M110.4,186.7c1.1,0.5,1.5,2.1,0.8,3.5c-0.6,1.4-2.2,2.1-3.3,1.6s-1.5-2.1-0.8-3.5
				C107.8,187,109.3,186.2,110.4,186.7z"/>
			<path class="st2" d="M100.6,189.5c0.9,1.4,0.3,3.3-1.4,4.4c-1.7,1.1-3.7,0.9-4.6-0.5c-0.9-1.4-0.2-3.4,1.4-4.4
				C97.6,187.9,99.7,188.2,100.6,189.5z"/>
			<path class="st2" d="M88.3,190.2c-0.3,1.4-1.9,1.9-3.7,1.3c-1.7-0.6-3-2.2-2.7-3.6c0.3-1.3,1.9-1.9,3.7-1.3
				C87.3,187.2,88.6,188.9,88.3,190.2z"/>
		</g>
		<g>
			<path class="st2" d="M16.7,71.4c0.8,1.3,0,3.3-1.7,4.5s-3.9,1.2-4.7-0.1c-0.7-1.2,0-3.3,1.8-4.4C13.8,70.1,15.9,70.2,16.7,71.4z"
				/>
			<path class="st2" d="M7.9,80.3c0.6,1,0.3,2.5-1,3.3s-2.7,0.6-3.4-0.4s-0.3-2.5,1-3.3S7.2,79.4,7.9,80.3z"/>
			<path class="st2" d="M20.8,79.7c1.1,1.7-0.2,4.5-2.9,6.3c-2.7,1.8-5.8,1.8-6.9,0.2c-1.1-1.7,0.2-4.5,2.9-6.3
				C16.6,78.1,19.7,78,20.8,79.7z"/>
			<path class="st2" d="M13.7,97.4c-1.3,0.3-2.6-0.9-2.9-2.7c-0.3-1.8,0.4-3.4,1.7-3.6c1.3-0.3,2.6,0.9,2.9,2.7
				C15.7,95.5,14.9,97.1,13.7,97.4z"/>
		</g>
	</g>
	<path class="st3" d="M71.5,139.5c3.8-1.8,7.6-2.7,9.5-1s1.3,7.8,1,10.5c-0.6,4.5,0.3,10.3,2.1,12.4c1.1,1.3,2.6,2,4.3,2.1
		c0.9,0,1.2-0.2,2-0.5c3.3-1.2,6-7.1,7.8-10.8c-0.1,2-0.1,4.1-0.1,6.4c0,10.4,1.1,20.8,1.8,26.6c-4.1,0.5-7.1,0.1-7.1,0.1
		s-16.6-1.1-29.2-15C48.3,154.5,67.7,141.3,71.5,139.5z"/>
	<path class="st3" d="M101.2,158.1c-0.3-8.6,0.6-16.5,2.2-24.8c3.1-15,11.6-20,15.5-20.1c1.4,2.1,3.2,5.2,4.7,9.7
		c3.4,9.9,3.3,17.3,2,30.2s-7.5,24.2-15.4,28.8c-2.1,1.2-3.1,1.7-5.2,2.2C103.4,178.3,101.5,166.7,101.2,158.1z"/>
	<path class="st3" d="M66,139.8c21.6-23.2,49.8-30,49.8-30s0,0,0.1,0.1c-6.1,2.6-13.1,12.4-16.1,24.5c-1.8,6-2.9,10.5-4.4,13.8
		c-0.8,1.8-1.5,3.4-2.3,4.7c0,0.1-0.1,0.1-0.1,0.2c-0.9,1.7-2,2.9-3,3.5c0,0,0,0-0.1,0c-0.1,0-0.1,0.1-0.2,0.1
		c-0.6,0.3-1.1,0.4-1.6,0.3c-1.8-0.5-2.6-3.6-2.3-7.6c0,0,0,0,0-0.1c0.1-0.5,0.1-1.1,0.2-1.7c0,0,0,0,0,0c0.5-4.3,0.7-10-3-12.5
		c-2.7-1.8-6.7-1.2-12.1,1.9c-2.2,1.2-4.1,2.5-5.7,3.6C65.7,140.1,66,139.8,66,139.8z"/>
	<g>
		<path class="st3" d="M38.8,125.3c3.3-2.4,6.6-4.7,10-6.8c3.5-2,7-3.9,10.7-5.5c1.8-0.8,3.7-1.6,5.6-2.3c1.9-0.7,3.8-1.4,5.7-2.1
			c3.8-1.3,7.6-2.6,11.5-3.5c3.9-0.9,7.8-1.6,11.7-1.8c3.9-0.3,7.8-0.2,11.5,0.6c1.8,0.4,3.6,0.9,5.2,1.7c0.8,0.4,1.5,0.8,2.2,1.4
			c0.1,0.1,0.3,0.2,0.4,0.3c-13.2,2.2-28.7,11.5-49.8,23.6c-14.4,8.2-23.2,3.2-27.4-1l0,0c0,0,0,0,0,0c-0.3-0.3-0.8-0.8-1.4-1.5
			C36,127.4,37.4,126.3,38.8,125.3z"/>
		<path class="st3" d="M106.4,99.5c-4.3-0.7-8.6-0.6-12.7,0c-4.1,0.6-8.2,1.5-12.2,2.6c-4,1.1-7.9,2.4-11.7,3.7
			c-3.8,1.4-7.6,2.9-11.4,4.4c-3.8,1.5-7.6,3-11.4,4.6c-3.8,1.6-7.6,3.1-11.4,4.6c-0.6,0.3-1.3,0.5-1.9,0.7
			c-1.4,0.5-2.8,1.1-4.2,1.6c-1.1-1.8-2.3-3.8-3.2-6c-3.1-7.4-8.5-17.3-5.5-26.2c3-8.9,7.7-11.3,18.1-13c5.3-0.9,26.3-2,43.4,4.9
			c11.1,4.5,21,12.5,26.7,18.7C108.1,99.9,107.3,99.7,106.4,99.5z"/>
	</g>
</g>
</svg>
