<?xml version="1.0" encoding="UTF-8"?>
<svg width="214px" height="42px" viewBox="0 0 214 42" version="1.1" xmlns="http://www.w3.org/2000/svg" xmlns:xlink="http://www.w3.org/1999/xlink">
    <!-- Generator: Sketch 57.1 (83088) - https://sketch.com -->
    <title>Group 112</title>
    <desc>Created with Sketch.</desc>
    <defs>
        <polygon id="path-1" points="0 0.5736 42.6234 0.5736 42.6234 23.9359333 0 23.9359333"></polygon>
    </defs>
    <g id="-Symbols" stroke="none" stroke-width="1" fill="none" fill-rule="evenodd">
        <g id="Menú">
            <g id="Group-2">
                <g id="Group-112">
                    <path d="M108.6423,21.9269 L108.6423,21.0779 C110.3863,20.8939 110.5013,20.7339 110.5013,18.6679 L110.4783,9.7189 C108.8263,13.6659 107.0133,18.0259 105.3613,21.9269 L104.6043,21.9269 C103.1123,18.1869 101.4833,13.9179 99.8303,9.9029 C99.5333,17.1079 99.5333,18.5309 99.5333,19.3569 C99.5553,20.5959 100.0143,20.9169 101.7363,21.0779 L101.7363,21.9269 L96.0443,21.9269 L96.0443,21.0779 C97.3523,20.9629 97.9493,20.7109 98.1323,19.3339 C98.2243,18.6449 98.3163,17.3379 98.8443,9.7649 C98.9133,8.6629 98.7523,8.0439 96.7793,7.8599 L96.7793,7.0109 L101.7363,7.0109 L106.1643,17.1309 L110.6163,7.0109 L115.4573,7.0109 L115.4573,7.8599 C113.6213,8.0439 113.4153,8.2269 113.4613,10.0629 L113.6453,18.6679 C113.6673,20.7339 113.7603,20.8249 115.6193,21.0779 L115.6193,21.9269 L108.6423,21.9269 Z" id="Fill-1" fill="#000000"></path>
                    <path d="M125.1863,7.6994 C122.8453,7.6994 121.1243,9.9944 121.1243,14.0554 C121.1243,17.9334 122.6623,21.2614 125.7593,21.2614 C127.9403,21.2614 129.6373,19.1504 129.6373,14.9504 C129.6373,10.4074 127.8483,7.6994 125.1863,7.6994 M125.5303,6.6894 C129.7753,6.6894 133.2413,9.7874 133.2413,14.3084 C133.2413,19.1964 129.7523,22.2714 125.4153,22.2714 C120.8263,22.2714 117.4993,18.9204 117.4993,14.4914 C117.4993,10.5684 120.2983,6.6894 125.5303,6.6894" id="Fill-3" fill="#000000"></path>
                    <path d="M150.7048,7.86 C149.3058,8.044 148.8688,8.342 148.8008,9.375 C148.7308,10.27 148.6628,11.05 148.6628,13.047 L148.6628,22.179 L147.3778,22.179 L137.8088,10.706 L137.8088,15.892 C137.8088,17.888 137.8538,18.783 137.9238,19.448 C138.0158,20.458 138.4968,20.986 140.1948,21.078 L140.1948,21.927 L134.5048,21.927 L134.5048,21.078 C135.8118,20.963 136.3858,20.619 136.5228,19.54 C136.6148,18.714 136.6608,17.888 136.6608,15.892 L136.6608,10.453 C136.6608,9.696 136.6148,9.191 136.1798,8.594 C135.7668,8.021 135.2158,7.952 134.2518,7.86 L134.2518,7.011 L138.7258,7.011 L147.4698,17.177 L147.4698,13.047 C147.4698,11.05 147.4458,10.293 147.3778,9.443 C147.3088,8.457 146.9408,7.975 145.0368,7.86 L145.0368,7.011 L150.7048,7.011 L150.7048,7.86 Z" id="Fill-5" fill="#000000"></path>
                    <path d="M157.6111,10.9582 C156.9451,12.6102 156.3021,14.1472 155.7291,15.8232 L159.3781,15.8232 L157.6111,10.9582 Z M159.6311,21.9272 L159.6311,21.0782 C161.0761,20.8712 161.0761,20.6192 160.7551,19.6322 C160.5251,18.9432 160.1581,17.9112 159.8131,16.9932 L155.3391,16.9932 C155.0871,17.7042 154.7651,18.5772 154.5361,19.2882 C154.0531,20.7332 154.6041,20.9172 156.4181,21.0782 L156.4181,21.9272 L150.7501,21.9272 L150.7501,21.0782 C152.1951,20.8942 152.5621,20.6872 153.3421,18.7602 L158.1161,6.8962 L159.2171,6.6892 C160.6851,10.6832 162.2461,14.7672 163.7381,18.5992 C164.5871,20.7332 164.7931,20.8942 166.2851,21.0782 L166.2851,21.9272 L159.6311,21.9272 Z" id="Fill-7" fill="#000000"></path>
                    <path d="M173.196,14.5607 C174.183,14.5607 174.94,14.3997 175.445,13.9637 C176.202,13.3217 176.524,12.4497 176.524,11.2797 C176.524,8.8467 175.124,7.9747 173.839,7.9747 C173.219,7.9747 172.921,8.0667 172.783,8.2047 C172.623,8.3417 172.577,8.6177 172.577,9.0767 L172.577,14.5607 L173.196,14.5607 Z M181.939,22.0647 C181.801,22.0647 181.526,22.0647 181.251,22.0417 C178.337,21.9037 177.487,21.2847 176.8,20.3207 C175.882,19.0587 175.216,17.6587 174.435,16.2817 C174.092,15.6627 173.77,15.5247 173.036,15.5247 L172.577,15.5017 L172.577,18.8527 C172.577,20.7107 172.806,20.8717 174.527,21.0777 L174.527,21.9267 L167.506,21.9267 L167.506,21.0777 C169.25,20.8937 169.456,20.7107 169.456,18.8527 L169.456,10.0627 C169.456,8.2497 169.226,7.9977 167.506,7.8597 L167.506,7.0117 L174.16,7.0117 C176.202,7.0117 177.373,7.2407 178.313,7.8827 C179.231,8.5027 179.851,9.5127 179.851,10.9357 C179.851,12.9777 178.497,14.0557 176.982,14.6527 C177.327,15.3407 178.221,16.8327 178.91,17.8887 C179.714,19.1497 180.218,19.7697 180.654,20.2747 C181.181,20.8717 181.434,21.0547 182.1,21.2847 L181.939,22.0647 Z" id="Fill-9" fill="#000000"></path>
                    <path d="M196.4958,17.9801 C196.1748,19.1271 195.5778,20.8711 195.2108,21.6741 C194.6138,21.8121 192.7318,22.2711 190.9878,22.2711 C184.8158,22.2711 182.2678,18.3011 182.2678,14.6521 C182.2678,9.9021 185.8938,6.6891 191.4018,6.6891 C193.3978,6.6891 195.1648,7.1721 195.7388,7.2411 C195.8528,8.3191 196.0148,10.0171 196.1748,11.0271 L195.2568,11.1881 C194.7748,9.3971 194.0868,8.5481 192.8698,8.0671 C192.3188,7.8371 191.4928,7.7451 190.8738,7.7451 C187.5468,7.7451 185.8718,10.5221 185.8718,14.1251 C185.8718,18.3241 188.0278,21.1691 191.1728,21.1691 C193.0998,21.1691 194.3848,20.1601 195.6238,17.6361 L196.4958,17.9801 Z" id="Fill-11" fill="#000000"></path>
                    <path d="M204.1433,10.9582 C203.4783,12.6102 202.8353,14.1472 202.2623,15.8232 L205.9113,15.8232 L204.1433,10.9582 Z M206.1633,21.9272 L206.1633,21.0782 C207.6093,20.8712 207.6093,20.6192 207.2883,19.6322 C207.0583,18.9432 206.6913,17.9112 206.3463,16.9932 L201.8723,16.9932 C201.6203,17.7042 201.2983,18.5772 201.0693,19.2882 C200.5863,20.7332 201.1373,20.9172 202.9513,21.0782 L202.9513,21.9272 L197.2833,21.9272 L197.2833,21.0782 C198.7283,20.8942 199.0953,20.6872 199.8753,18.7602 L204.6483,6.8962 L205.7493,6.6892 C207.2183,10.6832 208.7793,14.7672 210.2703,18.5992 C211.1203,20.7332 211.3263,20.8942 212.8183,21.0782 L212.8183,21.9272 L206.1633,21.9272 Z" id="Fill-13" fill="#000000"></path>
                    <path d="M99.4763,31.7311 L98.3563,28.3921 L98.3123,28.3921 L97.1923,31.7311 L99.4763,31.7311 Z M95.5063,33.9951 C95.5063,33.9221 95.5293,33.8501 95.5513,33.7881 L97.7803,27.4511 C97.8463,27.2441 97.9903,27.1091 98.2343,27.1091 L98.4333,27.1091 C98.6773,27.1091 98.8223,27.2441 98.8883,27.4511 L101.1173,33.8091 C101.1393,33.8601 101.1613,33.9431 101.1613,33.9951 C101.1613,34.2331 100.9613,34.4291 100.6843,34.4291 C100.4623,34.4291 100.2963,34.2851 100.2303,34.0981 L99.7083,32.5471 L96.9593,32.5471 L96.4383,34.0981 C96.3823,34.2851 96.1943,34.4291 95.9723,34.4291 C95.7063,34.4291 95.5063,34.2331 95.5063,33.9951 L95.5063,33.9951 Z" id="Fill-15" fill="#000000"></path>
                    <path d="M104.8982,30.7077 C105.9072,30.7077 106.4832,30.3457 106.4832,29.3117 C106.4832,28.2057 105.8842,27.9157 104.7762,27.9157 L103.6332,27.9157 L103.6332,30.7077 L104.8982,30.7077 Z M102.6912,33.9957 L102.6912,27.5547 C102.6912,27.3067 102.9022,27.1097 103.1572,27.1097 L104.8422,27.1097 C106.4602,27.1097 107.4482,27.7097 107.4482,29.3117 C107.4482,30.7487 106.5492,31.2137 105.9962,31.3797 L107.3362,33.7267 C107.3922,33.8197 107.4152,33.9127 107.4152,33.9847 C107.4152,34.2327 107.2042,34.4297 106.9382,34.4297 C106.7152,34.4297 106.5722,34.3057 106.4832,34.1397 L105.0642,31.5137 L103.6332,31.5137 L103.6332,34.0157 C103.6332,34.2437 103.4232,34.4297 103.1572,34.4297 C102.9022,34.4297 102.6912,34.2327 102.6912,33.9957 L102.6912,33.9957 Z" id="Fill-17" fill="#000000"></path>
                    <path d="M110.575,33.964 L110.575,27.916 L108.846,27.916 C108.591,27.916 108.413,27.74 108.413,27.513 C108.413,27.296 108.591,27.11 108.846,27.11 L113.235,27.11 C113.513,27.11 113.668,27.285 113.668,27.513 C113.668,27.74 113.491,27.916 113.235,27.916 L111.517,27.916 L111.517,33.995 C111.517,34.233 111.306,34.429 111.041,34.429 C110.786,34.429 110.575,34.233 110.575,33.964" id="Fill-19" fill="#000000"></path>
                    <path d="M115.1765,33.9953 L115.1765,27.4723 C115.1765,27.2233 115.3865,27.0273 115.6425,27.0273 C115.8975,27.0273 116.1185,27.2133 116.1185,27.4723 L116.1185,33.9953 C116.1185,34.2333 115.8975,34.4293 115.6425,34.4293 C115.3865,34.4293 115.1765,34.2333 115.1765,33.9953 M115.1105,26.2003 C115.1105,26.1593 115.1205,26.1173 115.1435,26.0653 L115.6305,24.8663 C115.6975,24.7113 115.8415,24.6283 116.0185,24.6283 C116.2625,24.6283 116.4505,24.8043 116.4505,25.0323 C116.4505,25.1143 116.4175,25.1973 116.3735,25.2693 L115.7525,26.3343 C115.6865,26.4483 115.5745,26.5103 115.4425,26.5103 C115.2655,26.5103 115.1105,26.3653 115.1105,26.2003" id="Fill-21" fill="#000000"></path>
                    <path d="M117.948,31.9377 L117.948,29.5187 C117.948,28.0087 118.791,27.0267 120.52,27.0267 C121.418,27.0267 122.194,27.3267 122.66,28.1437 C122.693,28.2057 122.716,28.2677 122.716,28.3297 C122.716,28.5577 122.515,28.7437 122.272,28.7437 C122.161,28.7437 122.006,28.7117 121.906,28.5677 C121.607,28.1437 121.252,27.8647 120.52,27.8647 C119.334,27.8647 118.89,28.5057 118.89,29.6217 L118.89,31.8337 C118.89,32.9507 119.334,33.5917 120.52,33.5917 C121.096,33.5917 121.585,33.3337 121.895,32.8987 C121.983,32.7747 122.094,32.6617 122.294,32.6617 C122.538,32.6617 122.737,32.8477 122.737,33.0747 C122.737,33.1477 122.716,33.2087 122.66,33.3027 C122.294,33.9017 121.639,34.4297 120.52,34.4297 C118.791,34.4297 117.948,33.4467 117.948,31.9377" id="Fill-23" fill="#000000"></path>
                    <path d="M124.157,32.0719 L124.157,27.4509 C124.157,27.2129 124.368,27.0269 124.623,27.0269 C124.888,27.0269 125.099,27.2229 125.099,27.4719 L125.099,31.9689 C125.099,32.9409 125.432,33.5919 126.684,33.5919 C127.937,33.5919 128.27,32.9409 128.27,31.9689 L128.27,27.4509 C128.27,27.2129 128.48,27.0269 128.736,27.0269 C129.002,27.0269 129.213,27.2229 129.213,27.4719 L129.213,32.0719 C129.213,33.5819 128.359,34.4289 126.684,34.4289 C125.011,34.4289 124.157,33.5819 124.157,32.0719" id="Fill-25" fill="#000000"></path>
                    <path d="M131.3201,33.9123 L131.3201,27.4723 C131.3201,27.2233 131.5301,27.0273 131.7851,27.0273 C132.0401,27.0273 132.2511,27.2133 132.2611,27.4723 L132.2611,33.5403 L134.9001,33.5403 C135.1441,33.5403 135.3331,33.7163 135.3331,33.9433 C135.3331,34.1703 135.1441,34.3463 134.9001,34.3463 L131.7631,34.3463 C131.5301,34.3463 131.3201,34.1603 131.3201,33.9123" id="Fill-27" fill="#000000"></path>
                    <path d="M140.4001,31.8341 L140.4001,29.6221 C140.4001,28.5051 139.9671,27.8641 138.7701,27.8641 C137.5731,27.8641 137.1401,28.5051 137.1401,29.6221 L137.1401,31.8341 C137.1401,32.9511 137.5731,33.5921 138.7701,33.5921 C139.9671,33.5921 140.4001,32.9511 140.4001,31.8341 M136.1981,31.9381 L136.1981,29.5191 C136.1981,28.0091 137.0411,27.0271 138.7701,27.0271 C140.5001,27.0271 141.3421,28.0091 141.3421,29.5191 L141.3421,31.9381 C141.3421,33.4471 140.5001,34.4291 138.7701,34.4291 C137.0411,34.4291 136.1981,33.4471 136.1981,31.9381" id="Fill-29" fill="#000000"></path>
                    <path d="M142.8835,33.9225 C142.7395,33.8395 142.6515,33.7055 142.6515,33.5505 C142.6515,33.3225 142.8505,33.1365 143.0945,33.1365 C143.1835,33.1365 143.2385,33.1575 143.3385,33.2095 C143.7815,33.4365 144.3035,33.5915 144.9355,33.5915 C146.0875,33.5915 146.4645,33.0435 146.4645,32.3515 C146.4645,30.1385 142.7505,31.5345 142.7505,28.9605 C142.7505,27.7195 143.5375,27.0265 144.9905,27.0265 C145.7665,27.0265 146.4435,27.2645 146.8205,27.5125 C146.9525,27.6065 147.0525,27.7195 147.0525,27.8645 C147.0525,28.0705 146.8635,28.2465 146.6195,28.2465 C146.5305,28.2465 146.4435,28.2155 146.3425,28.1645 C145.8555,27.9365 145.3895,27.8435 144.9905,27.8435 C143.9045,27.8435 143.6715,28.3715 143.6715,28.9495 C143.6715,30.6045 147.3855,29.5185 147.3855,32.2785 C147.3855,33.4575 146.6975,34.4295 144.9355,34.4295 C144.2475,34.4295 143.5165,34.2845 142.8835,33.9225" id="Fill-31" fill="#000000"></path>
                    <path d="M154.1599,33.5402 C155.8669,33.5402 156.2329,32.1342 156.2329,30.6762 C156.2329,29.3532 155.8669,27.9162 154.1599,27.9162 L152.8739,27.9162 L152.8739,33.5402 L154.1599,33.5402 Z M151.9309,33.9122 L151.9309,27.5542 C151.9309,27.3062 152.1419,27.1092 152.3969,27.1092 L154.3149,27.1092 C156.0989,27.1092 157.1969,28.2472 157.1969,30.7072 C157.1969,32.9512 156.0989,34.3462 154.5699,34.3462 L152.3969,34.3462 C152.1419,34.3462 151.9309,34.1502 151.9309,33.9122 L151.9309,33.9122 Z" id="Fill-33" fill="#000000"></path>
                    <path d="M158.9832,33.9123 L158.9832,27.5543 C158.9832,27.3063 159.1932,27.1093 159.4822,27.1093 L162.5972,27.1093 C162.8402,27.1093 163.0302,27.2853 163.0302,27.5133 C163.0302,27.7403 162.8402,27.9163 162.5972,27.9163 L159.9252,27.9163 L159.9252,30.2523 L162.3532,30.2523 C162.5972,30.2523 162.7862,30.4283 162.7862,30.6563 C162.7862,30.8833 162.5972,31.0583 162.3532,31.0583 L159.9252,31.0583 L159.9252,33.5403 L162.5972,33.5403 C162.8402,33.5403 163.0302,33.7163 163.0302,33.9433 C163.0302,34.1703 162.8402,34.3463 162.5972,34.3463 L159.4492,34.3463 C159.1932,34.3463 158.9832,34.1503 158.9832,33.9123" id="Fill-35" fill="#000000"></path>
                    <path d="M170.99,31.7311 L169.871,28.3921 L169.826,28.3921 L168.707,31.7311 L170.99,31.7311 Z M167.021,33.9951 C167.021,33.9221 167.044,33.8501 167.065,33.7881 L169.294,27.4511 C169.361,27.2441 169.505,27.1091 169.749,27.1091 L169.948,27.1091 C170.192,27.1091 170.337,27.2441 170.403,27.4511 L172.631,33.8091 C172.653,33.8601 172.676,33.9431 172.676,33.9951 C172.676,34.2331 172.476,34.4291 172.199,34.4291 C171.977,34.4291 171.81,34.2851 171.744,34.0981 L171.223,32.5471 L168.473,32.5471 L167.953,34.0981 C167.897,34.2851 167.709,34.4291 167.487,34.4291 C167.22,34.4291 167.021,34.2331 167.021,33.9951 L167.021,33.9951 Z" id="Fill-37" fill="#000000"></path>
                    <path d="M174.2058,33.9123 L174.2058,27.4723 C174.2058,27.2233 174.4168,27.0273 174.6718,27.0273 C174.9268,27.0273 175.1378,27.2133 175.1478,27.4723 L175.1478,33.5403 L177.7868,33.5403 C178.0308,33.5403 178.2198,33.7163 178.2198,33.9433 C178.2198,34.1703 178.0308,34.3463 177.7868,34.3463 L174.6488,34.3463 C174.4168,34.3463 174.2058,34.1603 174.2058,33.9123" id="Fill-39" fill="#000000"></path>
                    <path d="M179.3621,32.0719 L179.3621,27.4509 C179.3621,27.2129 179.5721,27.0269 179.8271,27.0269 C180.0931,27.0269 180.3031,27.2229 180.3031,27.4719 L180.3031,31.9689 C180.3031,32.9409 180.6361,33.5919 181.8891,33.5919 C183.1421,33.5919 183.4741,32.9409 183.4741,31.9689 L183.4741,27.4509 C183.4741,27.2129 183.6851,27.0269 183.9401,27.0269 C184.2071,27.0269 184.4171,27.2229 184.4171,27.4719 L184.4171,32.0719 C184.4171,33.5819 183.5631,34.4289 181.8891,34.4289 C180.2161,34.4289 179.3621,33.5819 179.3621,32.0719" id="Fill-41" fill="#000000"></path>
                    <path d="M186.5242,34.026 L186.5242,27.399 C186.5242,27.193 186.7022,27.027 186.9232,27.027 C187.0892,27.027 187.2112,27.12 187.2902,27.255 L189.7062,31.679 L192.1122,27.255 C192.1782,27.13 192.3112,27.027 192.4892,27.027 C192.7002,27.027 192.8882,27.172 192.8882,27.389 L192.8882,34.026 C192.8882,34.254 192.7002,34.429 192.4562,34.429 C192.2112,34.429 192.0232,34.254 192.0232,34.026 L192.0232,29.25 L191.9672,29.25 L190.0612,32.785 C189.9952,32.91 189.8612,32.982 189.7062,32.982 C189.5502,32.982 189.4182,32.91 189.3512,32.785 L187.4442,29.25 L187.3892,29.25 L187.3892,34.026 C187.3892,34.254 187.2012,34.429 186.9572,34.429 C186.7122,34.429 186.5242,34.254 186.5242,34.026" id="Fill-43" fill="#000000"></path>
                    <path d="M194.9949,33.9953 L194.9949,27.4723 C194.9949,27.2233 195.2059,27.0273 195.4609,27.0273 C195.7159,27.0273 195.9369,27.2133 195.9369,27.4723 L195.9369,33.9953 C195.9369,34.2333 195.7159,34.4293 195.4609,34.4293 C195.2059,34.4293 194.9949,34.2333 194.9949,33.9953" id="Fill-45" fill="#000000"></path>
                    <path d="M198.0447,34.026 L198.0447,27.43 C198.0447,27.203 198.2317,27.027 198.4657,27.027 C198.6437,27.027 198.7537,27.109 198.8537,27.255 L202.4127,32.568 L202.4677,32.568 L202.4677,27.43 C202.4677,27.203 202.6557,27.027 202.8997,27.027 C203.1447,27.027 203.3327,27.203 203.3327,27.43 L203.3327,34.016 C203.3327,34.254 203.0997,34.429 202.8447,34.429 C202.6557,34.429 202.5127,34.346 202.4237,34.212 L198.9647,28.981 L198.9087,28.981 L198.9087,34.026 C198.9087,34.254 198.7207,34.429 198.4767,34.429 C198.2317,34.429 198.0447,34.254 198.0447,34.026" id="Fill-47" fill="#000000"></path>
                    <path d="M205.4392,33.9953 L205.4392,27.4723 C205.4392,27.2233 205.6502,27.0273 205.9052,27.0273 C206.1602,27.0273 206.3812,27.2133 206.3812,27.4723 L206.3812,33.9953 C206.3812,34.2333 206.1602,34.4293 205.9052,34.4293 C205.6502,34.4293 205.4392,34.2333 205.4392,33.9953" id="Fill-49" fill="#000000"></path>
                    <path d="M212.4128,31.8341 L212.4128,29.6221 C212.4128,28.5051 211.9808,27.8641 210.7838,27.8641 C209.5858,27.8641 209.1538,28.5051 209.1538,29.6221 L209.1538,31.8341 C209.1538,32.9511 209.5858,33.5921 210.7838,33.5921 C211.9808,33.5921 212.4128,32.9511 212.4128,31.8341 M208.2118,31.9381 L208.2118,29.5191 C208.2118,28.0091 209.0548,27.0271 210.7838,27.0271 C212.5138,27.0271 213.3548,28.0091 213.3548,29.5191 L213.3548,31.9381 C213.3548,33.4471 212.5138,34.4291 210.7838,34.4291 C209.0548,34.4291 208.2118,33.4471 208.2118,31.9381" id="Fill-51" fill="#000000"></path>
                    <g id="Group-55" transform="translate(0.000000, 9.982700)">
                        <mask id="mask-2" fill="white">
                            <use xlink:href="#path-1"></use>
                        </mask>
                        <g id="Clip-54"></g>
                        <path d="M4.2224,6.5526 C4.2224,6.5526 4.5994,3.9186 6.7734,3.8556 C8.1534,3.8146 19.7544,3.8556 19.7544,3.8556 L19.7544,1.7026 L17.8524,1.7026 L17.8524,0.5736 L24.4374,0.5736 L24.4374,1.7656 L22.4514,1.7656 L22.4514,3.8766 L35.8294,3.8766 C35.8294,3.8766 37.9414,4.0446 38.2764,6.5736 L39.6344,6.5736 L39.6344,7.4936 L38.7564,7.4936 L38.7564,8.2246 L42.6234,8.2246 L42.6234,9.0816 L38.4854,9.0816 L37.4604,20.5586 C37.4604,20.5586 37.0224,23.3806 35.3494,23.6946 C34.1584,24.2376 8.9054,23.6946 8.9054,23.6946 C8.9054,23.6946 5.2684,24.0916 4.8284,21.4786 C4.2014,18.4266 3.8464,9.0406 3.8464,9.0406 L-0.0006,9.0406 L-0.0006,8.0786 L3.7004,8.0786 L3.7004,7.4306 L3.0934,7.4306 L3.0934,6.5526 L4.2224,6.5526 Z" id="Fill-53" fill="#F26536" mask="url(#mask-2)"></path>
                    </g>
                    <path d="M51.655,20.779 C51.655,20.779 52.031,18.898 54.205,18.856 C55.585,18.835 67.187,18.856 67.187,18.856 L67.187,17.33 L65.305,17.33 L65.305,16.514 L71.89,16.514 L71.89,17.351 L69.884,17.351 L69.884,18.856 L83.262,18.856 C83.262,18.856 85.374,18.981 85.708,20.779 L87.067,20.779 L87.067,21.427 L86.189,21.427 L86.189,21.97 L90.056,21.97 L90.056,22.577 L85.917,22.577 C85.917,22.577 84.893,30.416 84.893,30.751 C84.893,31.085 84.454,32.758 82.782,32.987 C81.59,33.363 56.338,32.987 56.338,32.987 C56.338,32.987 52.7,33.28 52.261,31.42 C51.676,29.245 51.32,22.556 51.32,22.556 L47.453,22.556 L47.453,21.866 L51.153,21.866 L51.153,21.406 L50.547,21.406 L50.547,20.8 L51.655,20.8 L51.655,20.779 Z" id="Fill-56" fill="#F26536"></path>
                    <path d="M30.3533,7.609 C30.3533,7.609 30.7293,3.219 32.9033,3.115 C34.2833,3.052 45.8853,3.115 45.8853,3.115 L45.8853,1.484 L43.9833,1.484 L43.9833,0 L50.5683,0 L50.5683,1.568 L48.5613,1.568 L48.5613,3.094 L61.9403,3.094 C61.9403,3.094 64.0513,3.365 64.3853,7.588 L65.7453,7.588 L65.7453,9.114 L64.8663,9.114 L64.8663,10.369 L68.7343,10.369 L68.7343,11.811 L64.5943,11.811 L63.5703,30.939 C63.5703,30.939 63.1313,35.642 61.4583,36.165 C60.2673,37.064 35.0153,36.165 35.0153,36.165 C35.0153,36.165 31.3773,36.834 30.9383,32.464 C30.3323,27.385 29.9773,11.727 29.9773,11.727 L26.1103,11.727 L26.1103,10.118 L29.8093,10.118 L29.8093,9.031 L29.2043,9.031 L29.2043,7.588 L30.3533,7.588 L30.3533,7.609 Z" id="Fill-58" fill="#FBAC30"></path>
                    <path d="M41.5193,19.2243 C41.5193,19.2243 40.9053,8.0853 53.0203,1.0703 C53.0203,1.0703 59.8433,-1.7397 58.7363,7.7763 C58.1823,10.2453 59.1733,12.2683 59.1733,12.2683 C59.1733,12.2683 61.2663,17.3813 56.3623,19.3053 C56.3623,19.3053 62.0083,19.9493 60.4323,27.3563 C58.8553,34.7633 55.5133,35.4473 51.9723,33.7273 C48.4323,32.0083 46.0223,30.8703 43.6803,28.0133 C42.4893,26.5783 40.9523,23.2823 40.8623,21.8403 C40.8173,21.1503 40.9593,20.3143 41.5193,19.2243" id="Fill-60" fill="#000000"></path>
                    <path d="M54.9802,33.1501 C55.2742,33.2741 55.4212,33.5871 55.3182,33.8171 C55.2142,34.0481 54.8802,34.1541 54.5872,34.0091 C54.2932,33.8851 54.1462,33.5721 54.2502,33.3411 C54.3742,33.1111 54.7092,33.0261 54.9802,33.1501" id="Fill-62" fill="#FFFFFF"></path>
                    <path d="M56.8767,31.7619 C57.2737,31.7189 57.6507,31.9469 57.6937,32.2809 C57.7377,32.6159 57.4457,32.9299 57.0277,32.9739 C56.6097,33.0169 56.2547,32.7889 56.2107,32.4549 C56.1677,32.1209 56.4587,31.8059 56.8767,31.7619" id="Fill-64" fill="#FFFFFF"></path>
                    <path d="M58.2068,29.9582 C58.4138,29.6232 58.7478,29.4962 58.9788,29.6622 C59.2098,29.8492 59.2118,30.2672 59.0248,30.6032 C58.8168,30.9382 58.4828,31.0862 58.2528,30.8992 C58.0218,30.7322 57.9988,30.2932 58.2068,29.9582" id="Fill-66" fill="#FFFFFF"></path>
                    <path d="M54.2976,1.6501 C54.7356,1.5851 55.1346,1.8141 55.1776,2.1061 C55.2216,2.4191 54.8876,2.7131 54.4486,2.7571 C54.0106,2.8011 53.6116,2.5931 53.5686,2.2801 C53.5266,1.9881 53.8596,1.6931 54.2976,1.6501" id="Fill-68" fill="#FFFFFF"></path>
                    <path d="M56.6824,1.9948 C56.9954,1.9518 57.2684,2.1388 57.2904,2.3898 C57.3124,2.6398 57.1044,2.8708 56.7904,2.9138 C56.4774,2.9568 56.2264,2.7698 56.1834,2.5198 C56.1614,2.2688 56.3694,2.0378 56.6824,1.9948" id="Fill-70" fill="#FFFFFF"></path>
                    <path d="M55.1619,3.2555 C55.8309,3.1695 56.4169,3.4385 56.4809,3.8565 C56.5249,4.2745 56.0249,4.6735 55.3569,4.7595 C54.6879,4.8465 54.1009,4.5775 54.0369,4.1595 C53.9939,3.7415 54.4939,3.3425 55.1619,3.2555" id="Fill-72" fill="#FFFFFF"></path>
                    <path d="M56.824,5.6847 C56.636,5.3577 56.68,4.9837 56.924,4.8617 C57.15,4.7257 57.488,4.8767 57.677,5.2037 C57.865,5.5297 57.82,5.9037 57.577,6.0267 C57.335,6.1487 56.997,5.9967 56.824,5.6847" id="Fill-74" fill="#FFFFFF"></path>
                    <path d="M54.0623,20.5431 C53.2093,20.7711 52.4883,21.1301 52.4243,21.6671 C52.3613,22.2041 53.2683,23.0951 53.6923,23.4811 C54.3883,24.1141 55.0423,25.1611 55.0453,25.7351 C55.0473,26.0901 54.9103,26.4071 54.6473,26.6521 C54.5023,26.7861 54.4333,26.7871 54.2613,26.8501 C53.5823,27.0991 52.3433,26.5321 51.5493,26.1801 C51.8323,26.4851 52.1283,26.8181 52.4413,27.1861 C53.8463,28.8401 55.0853,30.6571 55.7453,31.6671 C56.4583,31.1911 56.8933,30.7171 56.8933,30.7171 C56.8933,30.7171 59.3913,28.3011 59.5203,24.3711 C59.7953,19.8001 54.9163,20.3151 54.0623,20.5431" id="Fill-76" fill="#F69223"></path>
                    <path d="M51.8504,27.526 C50.7344,26.116 49.5164,24.981 48.1434,23.88 C45.6254,21.905 43.5954,22.27 42.9614,22.776 C43.0134,23.3 43.1604,24.033 43.5304,24.964 C44.3394,26.997 45.3464,28.17 47.3064,30.051 C49.2654,31.933 51.7904,32.892 53.6614,32.549 C54.1554,32.459 54.3854,32.395 54.7934,32.193 C54.2354,31.042 52.9654,28.935 51.8504,27.526" id="Fill-78" fill="#F69223"></path>
                    <path d="M54.9763,19.8639 C48.3913,19.1019 42.9733,21.8309 42.9733,21.8309 C42.9733,21.8309 42.9713,21.8389 42.9693,21.8499 C44.3013,21.4339 46.7393,22.0559 48.8523,23.5819 C49.9593,24.2969 50.7473,24.8599 51.4153,25.1929 C51.7893,25.3789 52.1223,25.5239 52.4123,25.6239 C52.4283,25.6319 52.4443,25.6369 52.4583,25.6409 C52.8363,25.7799 53.1733,25.8359 53.4213,25.7939 C53.4263,25.7969 53.4303,25.7959 53.4363,25.7929 C53.4533,25.7889 53.4673,25.7859 53.4843,25.7819 C53.6113,25.7539 53.7113,25.6939 53.7753,25.6039 C53.9973,25.2869 53.7083,24.6799 53.1053,24.0799 C53.1013,24.0769 53.0983,24.0729 53.0943,24.0679 C53.0143,23.9909 52.9293,23.9109 52.8383,23.8329 C52.8373,23.8309 52.8343,23.8289 52.8313,23.8279 C52.1743,23.2079 51.3703,22.3219 51.6203,21.4389 C51.8083,20.7769 52.5243,20.3379 53.8103,20.0969 C54.3233,20.0019 54.7893,19.9369 55.2113,19.8979 C55.0663,19.8729 54.9783,19.8639 54.9763,19.8639" id="Fill-80" fill="#F69223"></path>
                    <path d="M57.3484,13.8605 C56.5004,13.9165 55.6624,14.0065 54.8334,14.1465 C54.0054,14.2885 53.1834,14.4695 52.3784,14.7125 C51.9764,14.8335 51.5764,14.9635 51.1814,15.1095 C50.7854,15.2475 50.3924,15.3995 49.9994,15.5515 C49.2174,15.8655 48.4394,16.1785 47.6974,16.5595 C46.9564,16.9425 46.2404,17.3675 45.5814,17.8575 C44.9244,18.3465 44.3144,18.8925 43.8324,19.5105 C43.5944,19.8205 43.3874,20.1495 43.2444,20.4895 C43.1714,20.6595 43.1144,20.8325 43.0774,21.0025 C43.0704,21.0395 43.0644,21.0755 43.0574,21.1115 C45.4624,19.6815 49.1964,19.0625 54.1964,18.1265 C57.5934,17.4895 58.3184,15.5015 58.4234,14.2455 L58.4234,14.2415 C58.4304,14.1635 58.4414,14.0115 58.4484,13.8085 C58.0784,13.8195 57.7124,13.8365 57.3484,13.8605" id="Fill-82" fill="#F69223"></path>
                    <path d="M43.0906,18.9123 C43.6766,18.2103 44.3766,17.6553 45.1126,17.1823 C45.8496,16.7083 46.6186,16.3083 47.4016,15.9493 C48.1816,15.5863 48.9766,15.2643 49.7726,14.9613 C50.5696,14.6583 51.3776,14.3843 52.1866,14.1093 C52.9946,13.8333 53.8066,13.5593 54.6226,13.2933 C55.4386,13.0253 56.2586,12.7603 57.0726,12.4833 C57.2076,12.4373 57.3436,12.3913 57.4786,12.3433 C57.7736,12.2413 58.0666,12.1353 58.3566,12.0243 C58.2956,11.5813 58.1996,11.1113 58.0506,10.6463 C57.5386,9.0483 57.0646,6.7323 55.3856,5.7213 C53.7066,4.7083 52.6266,4.9543 50.7356,6.1003 C49.7766,6.6823 46.2786,9.3313 44.4866,12.7623 C43.3256,14.9843 42.8386,17.5913 42.7616,19.3493 C42.8656,19.1983 42.9756,19.0513 43.0906,18.9123" id="Fill-84" fill="#F69223"></path>
                    <path d="M39.6795,22.2751 C40.5445,23.4321 41.5085,26.9391 41.5305,28.8031 C41.5965,32.4971 40.4975,34.9251 38.9135,38.5281 C37.3295,42.1321 34.3405,43.7751 28.3415,39.1531 C22.3425,34.5311 26.2285,30.3831 26.2285,30.3831 C21.2455,32.0931 19.5285,26.8431 19.5285,26.8431 C19.5285,26.8431 18.9735,24.6591 16.9515,23.1361 C9.9445,16.6031 16.9635,14.3251 16.9635,14.3251 C30.7375,11.8231 37.4845,20.7081 37.4845,20.7081 C38.6165,21.1751 39.2675,21.7201 39.6795,22.2751" id="Fill-86" fill="#000000"></path>
                    <path d="M36.9285,39.7091 C37.1575,39.8171 37.2465,40.1511 37.1035,40.4361 C36.9745,40.7361 36.6515,40.8721 36.4225,40.7641 C36.1955,40.6551 36.1055,40.3211 36.2475,40.0371 C36.3745,39.7651 36.6845,39.6141 36.9285,39.7091" id="Fill-88" fill="#FFFFFF"></path>
                    <path d="M34.8601,40.3039 C35.0441,40.5869 34.9201,40.9909 34.5731,41.2289 C34.2261,41.4659 33.8001,41.4149 33.6171,41.1319 C33.4331,40.8489 33.5731,40.4309 33.9041,40.2069 C34.2511,39.9699 34.6761,40.0209 34.8601,40.3039" id="Fill-90" fill="#FFFFFF"></path>
                    <path d="M32.2966,40.4406 C32.2416,40.7326 31.8926,40.8366 31.5166,40.7146 C31.1566,40.5806 30.8876,40.2606 30.9416,39.9686 C31.0106,39.6926 31.3476,39.5736 31.7226,39.6946 C32.0976,39.8156 32.3646,40.1646 32.2966,40.4406" id="Fill-92" fill="#FFFFFF"></path>
                    <path d="M17.3289,15.6027 C17.4989,15.8697 17.3299,16.2857 16.9679,16.5357 C16.6039,16.7867 16.1599,16.7787 15.9899,16.5117 C15.8339,16.2607 15.9889,15.8297 16.3649,15.5947 C16.7279,15.3437 17.1729,15.3517 17.3289,15.6027" id="Fill-94" fill="#FFFFFF"></path>
                    <path d="M15.4919,17.4782 C15.6219,17.6972 15.5519,18.0022 15.2849,18.1722 C15.0169,18.3422 14.7099,18.3012 14.5639,18.0962 C14.4189,17.8912 14.5049,17.5722 14.7719,17.4012 C15.0389,17.2312 15.3459,17.2722 15.4919,17.4782" id="Fill-96" fill="#FFFFFF"></path>
                    <path d="M18.1892,17.3376 C18.4112,17.6976 18.1382,18.2826 17.5732,18.6496 C17.0072,19.0166 16.3682,19.0366 16.1302,18.6896 C15.9092,18.3296 16.1812,17.7446 16.7472,17.3776 C17.3122,17.0106 17.9522,16.9906 18.1892,17.3376" id="Fill-98" fill="#FFFFFF"></path>
                    <path d="M16.7009,21.0529 C16.4369,21.1159 16.1609,20.8609 16.0929,20.4899 C16.0249,20.1189 16.1839,19.7849 16.4449,19.7419 C16.7099,19.6779 16.9859,19.9339 17.0539,20.3049 C17.1249,20.6549 16.9659,20.9899 16.7009,21.0529" id="Fill-100" fill="#FFFFFF"></path>
                    <path d="M28.782,29.8371 C29.58,29.4581 30.362,29.2641 30.758,29.6321 C31.154,30.0001 31.04,31.2661 30.967,31.8351 C30.847,32.7691 31.026,33.9901 31.395,34.4301 C31.624,34.7011 31.934,34.8541 32.293,34.8691 C32.49,34.8791 32.543,34.8341 32.715,34.7711 C33.394,34.5211 33.97,33.2861 34.347,32.5041 C34.33,32.9191 34.319,33.3651 34.319,33.8481 C34.321,36.0181 34.553,38.2051 34.704,39.4011 C33.852,39.5021 33.215,39.4211 33.215,39.4211 C33.215,39.4211 29.747,39.1991 27.103,36.2881 C23.932,32.9841 27.984,30.2161 28.782,29.8371" id="Fill-102" fill="#F69223"></path>
                    <path d="M34.99,33.7238 C34.928,31.9278 35.12,30.2728 35.454,28.5458 C36.092,25.4098 37.876,24.3728 38.686,24.3488 C38.986,24.7808 39.348,25.4338 39.67,26.3838 C40.37,28.4558 40.362,30.0028 40.088,32.7048 C39.813,35.4078 38.511,37.7738 36.864,38.7238 C36.429,38.9758 36.212,39.0758 35.77,39.1858 C35.45,37.9478 35.053,35.5198 34.99,33.7238" id="Fill-104" fill="#F69223"></path>
                    <path d="M27.6453,29.9113 C32.1693,25.0653 38.0653,23.6353 38.0653,23.6353 C38.0653,23.6353 38.0713,23.6403 38.0813,23.6473 C36.7953,24.1933 35.3403,26.2453 34.7193,28.7773 C34.3393,30.0393 34.1023,30.9783 33.8093,31.6653 C33.6453,32.0483 33.4873,32.3743 33.3303,32.6393 C33.3233,32.6553 33.3143,32.6693 33.3053,32.6813 C33.1073,33.0333 32.8873,33.2943 32.6713,33.4223 C32.6683,33.4283 32.6653,33.4293 32.6593,33.4313 C32.6443,33.4393 32.6313,33.4463 32.6163,33.4533 C32.5003,33.5143 32.3853,33.5343 32.2793,33.5063 C31.9043,33.4083 31.7303,32.7593 31.8013,31.9113 C31.8023,31.9063 31.8023,31.9023 31.8023,31.8953 C31.8133,31.7843 31.8263,31.6683 31.8453,31.5503 C31.8443,31.5483 31.8453,31.5453 31.8463,31.5423 C31.9463,30.6443 31.9853,29.4473 31.2233,28.9363 C30.6503,28.5553 29.8203,28.6843 28.6853,29.3333 C28.2323,29.5933 27.8353,29.8463 27.4883,30.0893 C27.5833,29.9763 27.6433,29.9113 27.6453,29.9113" id="Fill-106" fill="#F69223"></path>
                    <path d="M21.95,26.8737 C22.632,26.3667 23.328,25.8927 24.051,25.4627 C24.773,25.0347 25.517,24.6397 26.288,24.3037 C26.674,24.1357 27.062,23.9757 27.457,23.8307 C27.849,23.6787 28.247,23.5407 28.644,23.4017 C29.444,23.1347 30.239,22.8687 31.052,22.6787 C31.863,22.4907 32.685,22.3497 33.504,22.2977 C34.321,22.2447 35.139,22.2647 35.908,22.4247 C36.289,22.5067 36.66,22.6227 36.99,22.7897 C37.155,22.8717 37.311,22.9657 37.449,23.0717 C37.478,23.0947 37.507,23.1187 37.535,23.1427 C34.776,23.6097 31.531,25.5567 27.115,28.0817 C24.113,29.7967 22.274,28.7507 21.381,27.8637 L21.378,27.8607 C21.322,27.8057 21.216,27.6967 21.079,27.5457 C21.367,27.3157 21.657,27.0907 21.95,26.8737" id="Fill-108" fill="#F69223"></path>
                    <path d="M36.0847,21.4879 C35.1847,21.3329 34.2907,21.3629 33.4227,21.4789 C32.5557,21.5949 31.7107,21.7889 30.8817,22.0219 C30.0517,22.2509 29.2367,22.5199 28.4357,22.8049 C27.6317,23.0909 26.8377,23.4059 26.0437,23.7199 C25.2487,24.0329 24.4537,24.3499 23.6587,24.6759 C22.8637,24.9999 22.0677,25.3289 21.2687,25.6459 C21.1347,25.6979 21.0017,25.7509 20.8677,25.8019 C20.5777,25.9139 20.2857,26.0239 19.9917,26.1269 C19.7527,25.7509 19.5207,25.3309 19.3327,24.8799 C18.6887,23.3309 17.5507,21.2589 18.1737,19.4009 C18.7967,17.5429 19.7787,17.0289 21.9617,16.6769 C23.0697,16.4989 27.4497,16.2539 31.0377,17.7059 C33.3607,18.6479 35.4207,20.3179 36.6187,21.6069 C36.4407,21.5599 36.2627,21.5189 36.0847,21.4879" id="Fill-110" fill="#F69223"></path>
                </g>
            </g>
        </g>
    </g>
</svg>