<svg width="311" height="166" viewBox="0 0 311 166" fill="none" xmlns="http://www.w3.org/2000/svg">
<path fill-rule="evenodd" clip-rule="evenodd" d="M14.5836 65.3808C14.5836 65.3808 15.8856 54.966 23.3932 54.7169C28.1589 54.5547 68.2216 54.7169 68.2216 54.7169V46.2039H61.6532V41.7398H84.3938V46.453H77.5353V54.7999H123.735C123.735 54.7999 131.028 55.4642 132.185 65.4639H136.875V69.1016H133.843V71.9919H147.197V75.3805H132.907L129.367 120.761C129.367 120.761 127.855 131.919 122.077 133.161C117.964 135.308 30.7558 133.161 30.7558 133.161C30.7558 133.161 18.1959 134.73 16.6764 124.398C14.5111 112.331 13.2852 75.2184 13.2852 75.2184H0V71.4147H12.781V68.8525H10.6848V65.3808H14.5836Z" fill="#F26536"/>
<path fill-rule="evenodd" clip-rule="evenodd" d="M178.387 82.1605C178.387 82.1605 179.685 74.723 187.193 74.5569C191.958 74.4739 232.025 74.5569 232.025 74.5569V68.5231H225.525V65.2966H248.266V68.6061H241.338V74.5569H287.538C287.538 74.5569 294.831 75.0512 295.985 82.1605H300.678V84.7227H297.646V86.8697H311V89.2698H296.706C296.706 89.2698 293.17 120.265 293.17 121.59C293.17 122.911 291.654 129.526 285.88 130.431C281.764 131.918 194.559 130.431 194.559 130.431C194.559 130.431 181.995 131.59 180.479 124.235C178.459 115.635 177.23 89.1868 177.23 89.1868H163.876V86.4585H176.653V84.6397H174.56V82.2435H178.387V82.1605Z" fill="#F26536"/>
<path fill-rule="evenodd" clip-rule="evenodd" d="M104.824 30.0861C104.824 30.0861 106.122 12.728 113.63 12.3168C118.396 12.0677 158.462 12.3168 158.462 12.3168V5.86776H151.893V0H174.634V6.1999H167.703V12.2337H213.906C213.906 12.2337 221.196 13.3053 222.349 30.0031H227.046V36.0369H224.01V40.9992H237.368V46.7009H223.071L219.535 122.333C219.535 122.333 218.019 140.929 212.241 142.997C208.128 146.552 120.923 142.997 120.923 142.997C120.923 142.997 108.36 145.642 106.844 128.363C104.751 108.281 103.525 46.3687 103.525 46.3687H90.1711V40.0067H102.945V35.7087H100.856V30.0031H104.824V30.0861Z" fill="#FBAC30"/>
<path fill-rule="evenodd" clip-rule="evenodd" d="M143.384 76.0132C143.384 76.0132 141.264 31.9694 183.102 4.23198C183.102 4.23198 206.664 -6.8788 202.841 30.7476C200.928 40.5101 204.35 48.509 204.35 48.509C204.35 48.509 211.578 68.7259 194.643 76.3334C194.643 76.3334 214.141 78.8798 208.698 108.167C203.252 137.455 191.711 140.159 179.482 133.358C167.257 126.561 158.935 122.062 150.847 110.765C146.734 105.091 141.426 92.0586 141.115 86.3569C140.96 83.6286 141.45 80.323 143.384 76.0132Z" fill="black"/>
<path fill-rule="evenodd" clip-rule="evenodd" d="M189.87 131.076C190.885 131.566 191.393 132.804 191.037 133.713C190.678 134.627 189.525 135.046 188.513 134.473C187.497 133.982 186.99 132.745 187.349 131.831C187.777 130.922 188.934 130.586 189.87 131.076Z" fill="white"/>
<path fill-rule="evenodd" clip-rule="evenodd" d="M196.419 125.587C197.79 125.417 199.092 126.319 199.241 127.639C199.393 128.964 198.384 130.205 196.941 130.379C195.497 130.549 194.271 129.648 194.119 128.327C193.971 127.007 194.976 125.761 196.419 125.587Z" fill="white"/>
<path fill-rule="evenodd" clip-rule="evenodd" d="M201.013 118.455C201.727 117.131 202.881 116.628 203.679 117.285C204.476 118.024 204.483 119.677 203.837 121.006C203.119 122.33 201.966 122.915 201.171 122.176C200.374 121.516 200.294 119.78 201.013 118.455Z" fill="white"/>
<path fill-rule="evenodd" clip-rule="evenodd" d="M187.513 6.52452C189.025 6.26751 190.403 7.17298 190.552 8.32755C190.704 9.56516 189.55 10.7276 188.034 10.9016C186.521 11.0756 185.144 10.2532 184.995 9.01555C184.85 7.86098 186 6.69454 187.513 6.52452Z" fill="white"/>
<path fill-rule="evenodd" clip-rule="evenodd" d="M195.748 7.88747C196.829 7.71745 197.772 8.45685 197.848 9.44931C197.924 10.4378 197.206 11.3512 196.121 11.5212C195.04 11.6912 194.173 10.9518 194.025 9.96333C193.949 8.97087 194.667 8.05749 195.748 7.88747Z" fill="white"/>
<path fill-rule="evenodd" clip-rule="evenodd" d="M190.497 12.8723C192.808 12.5323 194.831 13.5959 195.052 15.2487C195.204 16.9014 193.478 18.4791 191.171 18.8191C188.86 19.1631 186.833 18.0995 186.612 16.4467C186.464 14.794 188.191 13.2163 190.497 12.8723Z" fill="white"/>
<path fill-rule="evenodd" clip-rule="evenodd" d="M196.237 22.4774C195.588 21.1844 195.74 19.7056 196.583 19.2232C197.363 18.6855 198.53 19.2825 199.183 20.5755C199.832 21.8645 199.677 23.3433 198.838 23.8297C198.002 24.3121 196.835 23.711 196.237 22.4774Z" fill="white"/>
<path fill-rule="evenodd" clip-rule="evenodd" d="M186.7 81.2278C183.754 82.1293 181.264 83.5488 181.043 85.6721C180.826 87.7954 183.958 91.3184 185.422 92.8447C187.826 95.3475 190.084 99.4874 190.095 101.757C190.102 103.161 189.629 104.414 188.72 105.383C188.22 105.913 187.981 105.917 187.387 106.166C185.042 107.15 180.764 104.908 178.022 103.517C178.999 104.723 180.021 106.039 181.102 107.494C185.954 114.034 190.233 121.219 192.512 125.212C194.974 123.33 196.477 121.456 196.477 121.456C196.477 121.456 205.103 111.903 205.549 96.3637C206.498 78.2899 189.649 80.3262 186.7 81.2278Z" fill="#F69223"/>
<path fill-rule="evenodd" clip-rule="evenodd" d="M179.061 108.838C175.207 103.263 171.001 98.7753 166.26 94.4219C157.564 86.6127 150.554 88.0559 148.364 90.0567C148.544 92.1286 149.052 95.0269 150.329 98.7081C153.123 106.747 156.601 111.385 163.369 118.822C170.134 126.264 178.854 130.055 185.316 128.699C187.022 128.343 187.816 128.09 189.225 127.292C187.298 122.741 182.912 114.409 179.061 108.838Z" fill="#F69223"/>
<path fill-rule="evenodd" clip-rule="evenodd" d="M189.856 78.5422C167.116 75.5292 148.405 86.3197 148.405 86.3197C148.405 86.3197 148.399 86.3514 148.392 86.3949C152.992 84.75 161.411 87.2094 168.708 93.2432C172.531 96.0703 175.252 98.2964 177.559 99.6131C178.85 100.349 180 100.922 181.002 101.317C181.057 101.349 181.112 101.369 181.161 101.385C182.466 101.934 183.63 102.156 184.486 101.989C184.504 102.001 184.517 101.997 184.538 101.986C184.597 101.97 184.645 101.958 184.704 101.942C185.143 101.831 185.488 101.594 185.709 101.238C186.476 99.9848 185.478 97.5847 183.395 95.2123C183.381 95.2005 183.371 95.1846 183.357 95.1649C183.081 94.8604 182.787 94.5441 182.473 94.2357C182.47 94.2278 182.459 94.2198 182.449 94.2159C180.18 91.7644 177.404 88.2611 178.267 84.7698C178.916 82.1522 181.389 80.4164 185.83 79.4635C187.601 79.0878 189.211 78.8308 190.668 78.6766C190.167 78.5778 189.863 78.5422 189.856 78.5422Z" fill="#F69223"/>
<path fill-rule="evenodd" clip-rule="evenodd" d="M198.048 54.8046C195.12 55.0261 192.226 55.3819 189.363 55.9355C186.504 56.497 183.665 57.2126 180.885 58.1735C179.497 58.6519 178.115 59.1659 176.751 59.7432C175.384 60.2889 174.026 60.8899 172.669 61.4909C169.969 62.7324 167.282 63.97 164.72 65.4765C162.161 66.9909 159.688 68.6714 157.412 70.6088C155.143 72.5424 153.037 74.7012 151.372 77.1448C150.55 78.3706 149.836 79.6714 149.342 81.0158C149.09 81.688 148.893 82.372 148.765 83.0442C148.741 83.1905 148.72 83.3329 148.696 83.4752C157.001 77.821 169.896 75.3734 187.163 71.6725C198.894 69.1538 201.398 61.2932 201.761 56.3269V56.3111C201.785 56.0027 201.823 55.4017 201.847 54.599C200.569 54.6425 199.305 54.7097 198.048 54.8046Z" fill="#F69223"/>
<path fill-rule="evenodd" clip-rule="evenodd" d="M148.811 74.7795C150.834 72.0038 153.252 69.8093 155.793 67.9391C158.338 66.0649 160.994 64.4833 163.698 63.0638C166.392 61.6285 169.137 60.3553 171.886 59.1572C174.638 57.9591 177.429 56.8757 180.223 55.7884C183.013 54.6971 185.817 53.6137 188.635 52.5619C191.453 51.5022 194.285 50.4544 197.096 49.3592C197.562 49.1773 198.032 48.9954 198.498 48.8056C199.517 48.4023 200.528 47.9832 201.53 47.5443C201.319 45.7926 200.988 43.9343 200.473 42.0956C198.705 35.7771 197.068 26.6196 191.27 22.6221C185.472 18.6167 181.742 19.5894 175.212 24.1207C171.9 26.4219 159.82 36.8961 153.631 50.4623C149.622 59.2481 147.94 69.5563 147.674 76.5074C148.034 75.9104 148.413 75.3291 148.811 74.7795Z" fill="#F69223"/>
<path fill-rule="evenodd" clip-rule="evenodd" d="M137.031 88.0761C140.018 92.6509 143.347 106.518 143.423 113.888C143.651 128.494 139.856 138.094 134.385 152.341C128.915 166.591 118.593 173.087 97.8763 154.812C77.1594 136.537 90.5793 120.135 90.5793 120.135C73.3711 126.897 67.4416 106.138 67.4416 106.138C67.4416 106.138 65.525 97.5025 58.5423 91.4805C34.3444 65.6489 58.5837 56.6417 58.5837 56.6417C106.151 46.7487 129.451 81.8801 129.451 81.8801C133.36 83.7267 135.608 85.8816 137.031 88.0761Z" fill="black"/>
<path fill-rule="evenodd" clip-rule="evenodd" d="M127.53 157.01C128.321 157.437 128.629 158.758 128.135 159.885C127.689 161.071 126.574 161.609 125.783 161.182C124.999 160.751 124.688 159.43 125.179 158.307C125.617 157.232 126.688 156.635 127.53 157.01Z" fill="white"/>
<path fill-rule="evenodd" clip-rule="evenodd" d="M120.387 159.362C121.023 160.481 120.595 162.079 119.396 163.02C118.198 163.957 116.727 163.755 116.095 162.636C115.46 161.517 115.943 159.864 117.086 158.979C118.284 158.042 119.752 158.243 120.387 159.362Z" fill="white"/>
<path fill-rule="evenodd" clip-rule="evenodd" d="M111.535 159.903C111.345 161.057 110.14 161.469 108.841 160.986C107.598 160.456 106.669 159.191 106.855 158.036C107.094 156.945 108.257 156.475 109.553 156.953C110.848 157.432 111.77 158.811 111.535 159.903Z" fill="white"/>
<path fill-rule="evenodd" clip-rule="evenodd" d="M59.8456 61.6933C60.4327 62.749 59.849 64.3939 58.5989 65.3824C57.3419 66.3749 55.8086 66.3432 55.2215 65.2875C54.6828 64.2951 55.218 62.5909 56.5165 61.6617C57.7701 60.6692 59.3068 60.7009 59.8456 61.6933Z" fill="white"/>
<path fill-rule="evenodd" clip-rule="evenodd" d="M53.5017 69.1091C53.9507 69.975 53.7089 71.181 52.7869 71.8532C51.8614 72.5253 50.8012 72.3632 50.297 71.5527C49.7962 70.7421 50.0932 69.4808 51.0153 68.8046C51.9373 68.1324 52.9975 68.2946 53.5017 69.1091Z" fill="white"/>
<path fill-rule="evenodd" clip-rule="evenodd" d="M62.8165 68.5531C63.5832 69.9766 62.6404 72.2897 60.6892 73.7408C58.7346 75.1919 56.5279 75.271 55.706 73.899C54.9428 72.4755 55.8821 70.1624 57.8367 68.7113C59.7879 67.2602 61.9981 67.1811 62.8165 68.5531Z" fill="white"/>
<path fill-rule="evenodd" clip-rule="evenodd" d="M57.6768 83.2435C56.7652 83.4926 55.812 82.4843 55.5772 81.0174C55.3424 79.5504 55.8915 78.2298 56.7928 78.0598C57.7079 77.8067 58.6611 78.8189 58.8959 80.2859C59.1411 81.6698 58.592 82.9944 57.6768 83.2435Z" fill="white"/>
<path fill-rule="evenodd" clip-rule="evenodd" d="M99.3975 117.976C102.153 116.478 104.854 115.711 106.221 117.166C107.589 118.621 107.195 123.627 106.943 125.876C106.529 129.57 107.147 134.397 108.421 136.137C109.212 137.209 110.283 137.814 111.522 137.873C112.203 137.913 112.386 137.735 112.98 137.485C115.324 136.497 117.314 131.614 118.616 128.522C118.557 130.163 118.519 131.926 118.519 133.836C118.526 142.416 119.327 151.064 119.848 155.793C116.906 156.192 114.706 155.872 114.706 155.872C114.706 155.872 102.73 154.994 93.5993 143.484C82.6486 130.42 96.6417 119.475 99.3975 117.976Z" fill="#F69223"/>
<path fill-rule="evenodd" clip-rule="evenodd" d="M120.836 133.344C120.622 126.243 121.285 119.699 122.438 112.871C124.642 100.471 130.803 96.3704 133.6 96.2755C134.636 97.9837 135.886 100.566 136.998 104.322C139.415 112.515 139.388 118.632 138.441 129.315C137.492 140.003 132.995 149.358 127.308 153.115C125.806 154.111 125.056 154.506 123.53 154.941C122.425 150.046 121.054 140.446 120.836 133.344Z" fill="#F69223"/>
<path fill-rule="evenodd" clip-rule="evenodd" d="M95.472 118.27C111.095 99.1086 131.456 93.4543 131.456 93.4543C131.456 93.4543 131.477 93.4741 131.512 93.5018C127.07 95.6607 122.046 103.774 119.901 113.786C118.589 118.776 117.771 122.489 116.759 125.205C116.192 126.719 115.647 128.008 115.105 129.056C115.08 129.12 115.049 129.175 115.018 129.222C114.334 130.614 113.575 131.646 112.829 132.152C112.818 132.176 112.808 132.18 112.787 132.188C112.735 132.22 112.691 132.247 112.639 132.275C112.238 132.516 111.841 132.595 111.475 132.484C110.18 132.097 109.579 129.531 109.824 126.178C109.828 126.158 109.828 126.142 109.828 126.115C109.866 125.676 109.911 125.217 109.976 124.75C109.973 124.742 109.976 124.731 109.98 124.719C110.325 121.168 110.46 116.435 107.828 114.415C105.849 112.908 102.983 113.418 99.0636 115.984C97.4992 117.012 96.1282 118.013 94.9299 118.974C95.2579 118.527 95.4651 118.27 95.472 118.27Z" fill="#F69223"/>
<path fill-rule="evenodd" clip-rule="evenodd" d="M75.804 106.259C78.1592 104.254 80.5628 102.38 83.0596 100.68C85.5529 98.9876 88.1222 97.4258 90.7848 96.0972C92.1178 95.4329 93.4577 94.8003 94.8218 94.227C96.1755 93.626 97.5499 93.0803 98.9209 92.5307C101.684 91.475 104.429 90.4232 107.237 89.6719C110.037 88.9286 112.876 88.3711 115.704 88.1655C118.526 87.9559 121.351 88.035 124.006 88.6676C125.322 88.9919 126.603 89.4505 127.743 90.1108C128.313 90.4351 128.851 90.8067 129.328 91.2259C129.428 91.3168 129.528 91.4117 129.625 91.5066C120.097 93.3531 108.891 101.052 93.6407 111.035C83.2737 117.817 76.9229 113.681 73.839 110.174L73.8287 110.162C73.6353 109.944 73.2692 109.513 72.7961 108.916C73.7907 108.007 74.7922 107.117 75.804 106.259Z" fill="#F69223"/>
<path fill-rule="evenodd" clip-rule="evenodd" d="M124.617 84.9635C121.508 84.3506 118.421 84.4692 115.424 84.9279C112.43 85.3866 109.511 86.1537 106.649 87.0749C103.782 87.9804 100.968 89.044 98.2016 90.1709C95.4251 91.3018 92.6831 92.5473 89.9411 93.7889C87.1957 95.0265 84.4502 96.2799 81.7048 97.5689C78.9594 98.85 76.2105 100.151 73.4512 101.404C72.9884 101.61 72.5292 101.819 72.0664 102.021C71.0649 102.464 70.0565 102.899 69.0412 103.306C68.2159 101.819 67.4147 100.159 66.7655 98.3755C64.5415 92.2507 60.6115 84.058 62.763 76.7115C64.9145 69.3649 68.3057 67.3325 75.8444 65.9407C79.6707 65.2369 94.7966 64.2682 107.187 70.0094C115.209 73.7341 122.323 80.3373 126.461 85.434C125.846 85.2482 125.231 85.0861 124.617 84.9635Z" fill="#F69223"/>
</svg>
